<?xml version="1.0" encoding="UTF-8" standalone="no"?>
<!-- Created with Inkscape (http://www.inkscape.org/) -->

<svg
   xmlns:dc="http://purl.org/dc/elements/1.1/"
   xmlns:cc="http://creativecommons.org/ns#"
   xmlns:rdf="http://www.w3.org/1999/02/22-rdf-syntax-ns#"
   xmlns:svg="http://www.w3.org/2000/svg"
   xmlns="http://www.w3.org/2000/svg"
   xmlns:sodipodi="http://sodipodi.sourceforge.net/DTD/sodipodi-0.dtd"
   xmlns:inkscape="http://www.inkscape.org/namespaces/inkscape"
   width="100"
   height="100"
   viewBox="0 0 26.458333 26.458333"
   version="1.1"
   id="svg8"
   inkscape:version="0.92.3 (2405546, 2018-03-11)"
   sodipodi:docname="krol.svg">
  <defs
     id="defs2">
    <inkscape:path-effect
       effect="spiro"
       id="path-effect848"
       is_visible="true" />
    <inkscape:path-effect
       effect="spiro"
       id="path-effect844"
       is_visible="true" />
    <inkscape:path-effect
       effect="spiro"
       id="path-effect840"
       is_visible="true" />
    <inkscape:path-effect
       effect="spiro"
       id="path-effect836"
       is_visible="true" />
    <inkscape:path-effect
       effect="spiro"
       id="path-effect832"
       is_visible="true" />
    <inkscape:path-effect
       effect="spiro"
       id="path-effect828"
       is_visible="true" />
  </defs>
  <sodipodi:namedview
     id="base"
     pagecolor="#ffffff"
     bordercolor="#666666"
     borderopacity="1.0"
     inkscape:pageopacity="0.0"
     inkscape:pageshadow="2"
     inkscape:zoom="1.22568"
     inkscape:cx="247.72335"
     inkscape:cy="203.62767"
     inkscape:document-units="mm"
     inkscape:current-layer="layer1"
     showgrid="false"
     inkscape:window-width="3840"
     inkscape:window-height="2093"
     inkscape:window-x="-9"
     inkscape:window-y="-9"
     inkscape:window-maximized="1"
     units="px" />
  <metadata
     id="metadata5">
    <rdf:RDF>
      <cc:Work
         rdf:about="">
        <dc:format>image/svg+xml</dc:format>
        <dc:type
           rdf:resource="http://purl.org/dc/dcmitype/StillImage" />
        <dc:title></dc:title>
      </cc:Work>
    </rdf:RDF>
  </metadata>
  <g
     inkscape:label="Layer 1"
     inkscape:groupmode="layer"
     id="layer1"
     transform="translate(0,-270.54167)">
    <path
       style="fill:#000000;fill-opacity:1;fill-rule:evenodd;stroke:#000000;stroke-width:0.05798963px;stroke-linecap:butt;stroke-linejoin:miter;stroke-opacity:1"
       d="m -286.36331,193.16458 17.06552,0.0621 c 0.0767,-0.009 0.15289,-0.0226 0.22782,-0.0414 0.35696,-0.0893 0.68415,-0.29303 0.92295,-0.57299 0.23879,-0.27996 0.38825,-0.63472 0.42323,-1.00102 0.0402,-0.4213 -0.0724,-0.85555 -0.31232,-1.20419 -0.23993,-0.34863 -0.60529,-0.60896 -1.01316,-0.72189 l -1.40832,-0.0414 c -0.74632,-0.41356 -1.41658,-0.96388 -1.9675,-1.61543 -0.76192,-0.9011 -1.28634,-1.98007 -1.69827,-3.08588 -0.47084,-1.26395 -0.80478,-2.57885 -0.99411,-3.9143 0.54635,-0.2428 1.06774,-0.54173 1.5533,-0.89055 1.155,-0.82973 2.10984,-1.95709 2.65095,-3.27227 0.44723,-1.08699 0.60572,-2.28921 0.47108,-3.45688 -0.13463,-1.16766 -0.56062,-2.29877 -1.21666,-3.27406 -0.83779,-1.24549 -2.05448,-2.23445 -3.44924,-2.78922 -1.39477,-0.55477 -2.96204,-0.67124 -4.42078,-0.31737 -1.73082,0.41988 -3.29022,1.50642 -4.28709,2.98232 -0.93951,1.39097 -1.37438,3.11255 -1.22193,4.78415 0.12384,1.35791 0.62997,2.67972 1.44974,3.76932 0.8036,1.06811 1.90569,1.90918 3.14801,2.40243 -0.0134,0.0967 -0.0272,0.19336 -0.0414,0.28995 -0.25732,1.74898 -0.65945,3.50466 -1.51187,5.05338 -0.73026,1.32677 -1.78418,2.47389 -3.04446,3.3137 -0.44207,-0.0169 -0.88532,-0.003 -1.32547,0.0414 -0.0622,0.006 -0.12434,0.0132 -0.1864,0.0207 -0.25923,0.13543 -0.4976,0.3107 -0.70416,0.51776 -0.27461,0.27527 -0.4957,0.61451 -0.5799,0.99411 -0.0878,0.39584 -0.0201,0.82013 0.16569,1.18051 0.10198,0.1978 0.2396,0.37877 0.41247,0.51891 0.17287,0.14015 0.3818,0.2384 0.60235,0.26809 0.0961,0.0129 0.19388,0.0129 0.28995,0 z"
       id="path826"
       inkscape:connector-curvature="0"
       inkscape:path-effect="#path-effect828"
       inkscape:original-d="m -286.36331,193.16458 c 0,0 17.06552,0.0621 17.06552,0.0621 0,0 0.15193,-0.0277 0.22782,-0.0414 0.0759,-0.0138 0.89751,-1.0494 1.34618,-1.57401 0.44867,-0.52461 -1.32548,-1.92608 -1.32548,-1.92608 0,0 -1.40832,-0.0414 -1.40832,-0.0414 0,0 -1.31161,-1.07701 -1.9675,-1.61543 -0.65589,-0.53842 -1.13212,-2.05731 -1.69827,-3.08588 -0.56615,-1.02856 -0.99411,-3.9143 -0.99411,-3.9143 0,0 1.03559,-0.59376 1.5533,-0.89055 0.5177,-0.29679 1.76736,-2.18157 2.65095,-3.27227 0.88359,-1.0907 -0.497,-4.48736 -0.74558,-6.73094 -0.24858,-2.24359 -5.24662,-2.07112 -7.87002,-3.10659 -2.6234,-1.03547 -2.858,1.98816 -4.28709,2.98232 -1.42909,0.99417 -0.81456,3.18938 -1.22193,4.78415 -0.40736,1.59477 0.96656,2.51282 1.44974,3.76932 0.4832,1.2565 3.14801,2.40243 3.14801,2.40243 0,0 -0.0276,0.19324 -0.0414,0.28995 -0.0138,0.0967 -1.00785,3.36886 -1.51187,5.05338 -0.50402,1.68452 -3.04446,3.3137 -3.04446,3.3137 0,0 -0.88359,0.0275 -1.32547,0.0414 -0.44189,0.0139 -0.1864,0.0207 -0.1864,0.0207 0,0 -0.46938,0.34512 -0.70416,0.51776 -0.23478,0.17265 -0.38654,0.66269 -0.5799,0.99411 -0.19335,0.33143 0.11052,0.78694 0.16569,1.18051 0.0552,0.39355 0.6766,0.5246 1.01482,0.787 0.33821,0.26239 0.28995,0 0.28995,0 z" />
    <path
       style="fill:#000000;fill-opacity:1;fill-rule:evenodd;stroke:#000000;stroke-width:0.05788483px;stroke-linecap:butt;stroke-linejoin:miter;stroke-opacity:1"
       d="m -248.79737,119.33151 15.84604,-0.0146 c 0.12856,-0.002 0.25681,-0.0219 0.38008,-0.0585 0.44364,-0.13166 0.79695,-0.47213 1.06712,-0.84784 0.18468,-0.25682 0.343,-0.54695 0.36545,-0.86248 0.0183,-0.25794 -0.057,-0.5175 -0.18705,-0.741 -0.13007,-0.22351 -0.31281,-0.41294 -0.51462,-0.57463 -0.27881,-0.22339 -0.59705,-0.39742 -0.93556,-0.51163 l -1.56414,-0.0146 c -0.0669,-0.0268 -0.13083,-0.0612 -0.19003,-0.10233 -0.2492,-0.1732 -0.40668,-0.4713 -0.40931,-0.77476 l -0.0877,-9.07786 2.95286,-0.0439 c 0.17942,-0.0262 0.35387,-0.086 0.51163,-0.17542 0.11908,-0.0675 0.22915,-0.15218 0.31884,-0.25557 0.0897,-0.10338 0.15866,-0.22584 0.1928,-0.35839 0.027,-0.10466 0.032,-0.21493 0.0146,-0.3216 l -0.0146,-10.715093 c -0.004,-0.126091 -0.034,-0.251311 -0.0877,-0.36545 -0.0813,-0.172665 -0.21739,-0.319013 -0.38372,-0.412573 -0.16633,-0.09356 -0.36208,-0.133883 -0.55184,-0.113677 l -2.1781,-0.0585 c -0.20151,0.06092 -0.39119,0.160749 -0.55549,0.29237 -0.25385,0.203353 -0.44973,0.495 -0.4824,0.81861 -0.01,0.09745 -0.005,0.196376 0.0146,0.29236 -0.0478,1.08592 -0.0721,2.17287 -0.0731,3.25984 -4e-5,0.04386 -4e-5,0.08771 0,0.13157 -0.008,0.100536 -0.0443,0.198651 -0.10317,0.280561 -0.0589,0.08191 -0.14037,0.147382 -0.23304,0.187219 -0.0825,0.03546 -0.17361,0.05063 -0.26313,0.0438 l -2.11963,0.0146 c -0.13921,0.02253 -0.28646,-0.009 -0.4042,-0.08664 -0.11774,-0.0776 -0.20481,-0.20048 -0.239,-0.33729 -0.0155,-0.06193 -0.0204,-0.126467 -0.0146,-0.19003 0.1001,-1.205339 0.11965,-2.417359 0.0585,-3.6253 -0.004,-0.08773 -0.009,-0.175444 -0.0146,-0.26313 -0.0418,-0.176476 -0.13358,-0.340835 -0.26183,-0.46908 -0.12824,-0.128245 -0.2926,-0.219983 -0.46908,-0.26182 -0.12414,-0.02943 -0.25403,-0.03442 -0.38007,-0.0146 l -2.17809,-0.0585 c -0.22122,0.02931 -0.43464,0.115692 -0.61396,0.24851 -0.24484,0.181346 -0.42379,0.449764 -0.49702,0.74552 v 3.68377 c 3.8e-4,0.145386 -0.0449,0.290562 -0.12796,0.40991 -0.083,0.119347 -0.20338,0.212323 -0.33983,0.26252 -0.0333,0.01226 -0.0676,0.02203 -0.10232,0.0292 l -1.91497,-0.0146 c -0.15736,-0.0092 -0.31121,-0.07081 -0.43144,-0.172744 -0.12023,-0.101936 -0.20617,-0.243633 -0.241,-0.397366 -0.0173,-0.07651 -0.0223,-0.155816 -0.0146,-0.23389 0.0474,-1.19807 0.0718,-2.397053 0.0731,-3.59606 7e-5,-0.06822 7e-5,-0.136433 0,-0.20465 -0.0554,-0.17459 -0.16247,-0.332427 -0.30422,-0.448413 -0.14176,-0.115985 -0.31768,-0.189695 -0.49978,-0.209407 -0.068,-0.0074 -0.1367,-0.0074 -0.20466,0 l -2.28042,-0.0877 c -0.21726,0.08723 -0.41112,0.232008 -0.55644,0.415568 -0.14531,0.18356 -0.24175,0.405462 -0.2768,0.636942 -0.008,0.05325 -0.0129,0.106973 -0.0146,0.1608 l -0.11695,10.656613 c 0.008,0.20489 0.0882,0.40614 0.22232,0.56128 0.1341,0.15513 0.3217,0.26313 0.5232,0.30119 0.0722,0.0136 0.14595,0.0185 0.21928,0.0146 l 3.08442,0.0731 -0.0585,9.04863 c 0.006,0.20621 -0.0579,0.41376 -0.17832,0.58127 -0.1204,0.16751 -0.29683,0.29401 -0.49412,0.35429 -0.1797,0.0549 -0.37578,0.0549 -0.55548,0 l -1.06713,0.0146 c -0.53235,0.0973 -1.01325,0.44552 -1.27177,0.92094 -0.24524,0.451 -0.28725,1.00675 -0.11695,1.49105 0.18439,0.52438 0.61584,0.95583 1.14022,1.14022 h 0.19003 z"
       id="path830"
       inkscape:connector-curvature="0"
       inkscape:path-effect="#path-effect832"
       inkscape:original-d="m -248.79737,119.33151 c 0,0 15.84604,-0.0146 15.84604,-0.0146 0,0 0.25344,-0.039 0.38008,-0.0585 0.12663,-0.0194 0.71147,-0.56529 1.06712,-0.84784 0.35565,-0.28256 0.24369,-0.57504 0.36545,-0.86248 0.12176,-0.28743 -0.46772,-0.87714 -0.70167,-1.31563 -0.23394,-0.43848 -0.93556,-0.51163 -0.93556,-0.51163 0,0 -1.56414,-0.0146 -1.56414,-0.0146 0,0 -0.12663,-0.0683 -0.19003,-0.10233 -0.0634,-0.0341 -0.40931,-0.77476 -0.40931,-0.77476 0,0 -0.0877,-9.07786 -0.0877,-9.07786 0,0 2.95286,-0.0439 2.95286,-0.0439 0,0 0.34115,-0.11701 0.51163,-0.17542 0.17049,-0.0584 0.34115,-0.40937 0.51164,-0.61396 0.17049,-0.2046 0.0146,-0.3216 0.0146,-0.3216 0,0 -0.0146,-10.715093 -0.0146,-10.715093 0,0 -0.0584,-0.24369 -0.0877,-0.36545 -0.0293,-0.12176 -0.93556,-0.52625 -0.93556,-0.52625 0,0 -2.1781,-0.0585 -2.1781,-0.0585 0,0 -0.37027,0.19485 -0.55549,0.29237 -0.18522,0.0975 -0.32154,0.54568 -0.4824,0.81861 -0.16086,0.27293 0.0146,0.29236 0.0146,0.29236 0,0 -0.0487,2.17317 -0.0731,3.25984 -0.0244,1.08668 0,0.13157 0,0.13157 0,0 -0.22408,0.31179 -0.33621,0.46778 -0.11214,0.15598 -0.26313,0.0438 -0.26313,0.0438 0,0 -2.11963,0.0146 -2.11963,0.0146 0,0 -0.42874,-0.28268 -0.6432,-0.42393 -0.21445,-0.14125 -0.0146,-0.19003 -0.0146,-0.19003 0,0 0.039,-2.41693 0.0585,-3.6253 0.0194,-1.20837 -0.0146,-0.26313 -0.0146,-0.26313 0,0 -0.48721,-0.48733 -0.73091,-0.7309 -0.24368,-0.24358 -0.38007,-0.0146 -0.38007,-0.0146 0,0 -2.17809,-0.0585 -2.17809,-0.0585 0,0 -0.40925,0.16561 -0.61396,0.24851 -0.20472,0.0829 -0.49702,0.74552 -0.49702,0.74552 0,0 0,3.68377 0,3.68377 0,0 -0.3118,0.44823 -0.46779,0.67243 -0.15598,0.22421 -0.10232,0.0292 -0.10232,0.0292 0,0 -1.91497,-0.0146 -1.91497,-0.0146 0,0 -0.44823,-0.38013 -0.67244,-0.57011 -0.2242,-0.18998 -0.0146,-0.23389 -0.0146,-0.23389 0,0 0.0488,-2.39743 0.0731,-3.59606 0.0243,-1.19863 0,-0.20465 0,-0.20465 0,0 -0.53595,-0.43861 -0.804,-0.65782 -0.26806,-0.21921 -0.20466,0 -0.20466,0 0,0 -2.28042,-0.0877 -2.28042,-0.0877 0,0 -0.55544,0.70161 -0.83324,1.05251 -0.2778,0.35089 -0.0146,0.1608 -0.0146,0.1608 0,0 -0.11695,10.656613 -0.11695,10.656613 0,0 0.49708,0.57492 0.74552,0.86247 0.24846,0.28755 0.21928,0.0146 0.21928,0.0146 0,0 3.08442,0.0731 3.08442,0.0731 0,0 -0.0585,9.04863 -0.0585,9.04863 0,0 -0.44823,0.62364 -0.67244,0.93556 -0.2242,0.31191 -0.55548,0 -0.55548,0 0,0 -1.06713,0.0146 -1.06713,0.0146 0,0 -0.84779,0.6139 -1.27177,0.92094 -0.42399,0.30704 -0.0779,0.99398 -0.11695,1.49105 -0.039,0.49708 1.14022,1.14022 1.14022,1.14022 0,0 0.19003,0 0.19003,0 z" />
    <path
       style="fill:#000000;fill-opacity:1;fill-rule:evenodd;stroke:#000000;stroke-width:0.05823687px;stroke-linecap:butt;stroke-linejoin:miter;stroke-opacity:1"
       d="m -119.88414,109.16603 16.97193,-0.0147 c 0.57104,-0.0698 1.0965,-0.44103 1.35305,-0.95595 0.21609,-0.43371 0.24088,-0.95715 0.0735,-1.41188 -0.12583,-0.34186 -0.35699,-0.64412 -0.65394,-0.85511 -0.29696,-0.21099 -0.65845,-0.32982 -1.02267,-0.33616 l -0.70593,-0.0294 v -1.17657 c 0,-0.16085 0.01,-0.32344 0.0579,-0.47686 0.0483,-0.15342 0.1294,-0.29398 0.20682,-0.43497 0.68349,-1.24465 0.95144,-2.67777 1.04259,-4.094807 0.0911,-1.417035 0.0154,-2.839539 0.0604,-4.258789 0.0406,-1.280413 0.17932,-2.566275 0.0294,-3.83853 -0.12562,-1.066044 -0.45337,-2.103186 -0.91184,-3.07377 -0.64312,-1.361489 -1.55405,-2.60729 -2.7208,-3.55911 -1.14215,-0.931751 -2.52148,-1.570328 -3.9709,-1.83837 l -6.66229,-0.0441 c -0.16197,0.01358 -0.31484,0.109821 -0.3971,0.25001 -0.0527,0.08975 -0.0768,0.194778 -0.0767,0.298843 1.7e-4,0.104065 0.024,0.207258 0.062,0.304147 0.12337,0.314783 0.38734,0.553492 0.54418,0.85301 0.19808,0.378288 0.2114,0.83047 0.13235,1.2501 -0.0852,0.452281 -0.30201,0.8682 -0.55886,1.2501 l -3.92678,5.83869 c -0.13074,0.39019 -0.21486,0.795974 -0.25002,1.20598 -0.0507,0.591692 0.006,1.208416 0.27944,1.73543 0.24213,0.46617 0.64707,0.840323 1.11773,1.07361 0.72114,0.357442 1.60022,0.379546 2.33841,0.0588 l 5.2357,-3.27967 c 0.10541,-0.122371 0.25036,-0.210138 0.40765,-0.246838 0.15729,-0.0367 0.3261,-0.02214 0.47479,0.04094 0.1531,0.06496 0.28245,0.179237 0.37943,0.314349 0.097,0.135112 0.1629,0.290583 0.20885,0.450421 0.063,0.219123 0.0896,0.449087 0.0735,0.67652 -0.0352,0.498368 -0.26937,0.958286 -0.3971,1.44129 -0.0496,0.187735 -0.0838,0.381035 -0.16178,0.55887 -0.0823,0.187694 -0.20976,0.351852 -0.34296,0.507619 -0.1332,0.155768 -0.27198,0.306669 -0.40774,0.460211 l -2.08759,2.360986 c -0.69006,0.49098 -1.332,1.04955 -1.91366,1.66512 -0.85216,0.90184 -1.57433,1.92632 -2.13731,3.03201 -0.0774,0.23451 -0.23243,0.44267 -0.43492,0.58403 -0.0912,0.0637 -0.19307,0.11336 -0.30164,0.13751 -0.10858,0.0241 -0.2212,0.0201 -0.3321,0.0116 l -0.64617,-0.0497 c -0.10905,0.0332 -0.21684,0.0705 -0.32308,0.11184 -0.4051,0.15759 -0.79667,0.38165 -1.06865,0.72072 -0.31932,0.39808 -0.44663,0.94957 -0.31066,1.44145 0.12067,0.43653 0.43555,0.8046 0.82014,1.0438 0.23183,0.14419 0.49006,0.24579 0.75799,0.29823 l 0.0953,-8.8e-4 z"
       id="path834"
       inkscape:connector-curvature="0"
       inkscape:path-effect="#path-effect836"
       inkscape:original-d="m -119.88414,109.16603 c 0,0 16.97193,-0.0147 16.97193,-0.0147 0,0 0.90209,-0.63736 1.35305,-0.95595 0.45095,-0.3186 0.0491,-0.94131 0.0735,-1.41188 0.0245,-0.47057 -1.67661,-1.19127 -1.67661,-1.19127 0,0 -0.70593,-0.0294 -0.70593,-0.0294 0,0 0,-0.78444 0,-1.17657 -4e-5,-0.39213 0.17655,-0.60795 0.26472,-0.91183 0.0882,-0.30389 0.73543,-5.569116 1.10303,-8.353596 0.36763,-2.78447 0.0196,-2.55908 0.0294,-3.83853 0.01,-1.27946 -0.60783,-2.04924 -0.91184,-3.07377 -0.30401,-1.02453 -1.8138,-2.3728 -2.7208,-3.55911 -0.907,-1.1863 -3.9709,-1.83837 -3.9709,-1.83837 0,0 -6.66229,-0.0441 -6.66229,-0.0441 0,0 -0.26466,0.16662 -0.3971,0.25001 -0.13241,0.0834 -0.01,0.40194 -0.0147,0.60299 -0.005,0.20106 0.36283,0.56862 0.54418,0.85301 0.18132,0.28439 0.0883,0.83334 0.13235,1.2501 0.0441,0.41676 -0.55886,1.2501 -0.55886,1.2501 0,0 -3.92678,5.83869 -3.92678,5.83869 0,0 -0.16662,0.80392 -0.25002,1.20598 -0.0834,0.40205 0.18635,1.15689 0.27944,1.73543 0.0931,0.57853 0.74521,0.71568 1.11773,1.07361 0.37252,0.35793 2.33841,0.0588 2.33841,0.0588 0,0 5.2357,-3.27967 5.2357,-3.27967 0,0 0.58835,-0.13732 0.88244,-0.2059 0.29406,-0.0686 0.39223,0.50979 0.58828,0.76477 0.19603,0.25498 0.0491,0.45095 0.0735,0.67652 0.0244,0.22557 -0.26468,0.9608 -0.3971,1.44129 -0.13241,0.48049 -0.10781,0.37252 -0.16178,0.55887 -0.054,0.18634 -0.7507,0.96783 -0.7507,0.96783 0,0 -2.08759,2.360986 -2.08759,2.360986 0,0 -1.27572,1.11002 -1.91366,1.66512 -0.63794,0.5551 -2.13731,3.03201 -2.13731,3.03201 0,0 -0.28988,0.38929 -0.43492,0.58403 -0.14503,0.19474 -0.63374,0.14911 -0.63374,0.14911 0,0 -0.64617,-0.0497 -0.64617,-0.0497 0,0 -0.21533,0.0745 -0.32308,0.11184 -0.10775,0.0373 -0.71238,0.48042 -1.06865,0.72072 -0.35628,0.2403 -0.20705,0.96091 -0.31066,1.44145 -0.10361,0.48054 0.54681,0.69581 0.82014,1.0438 0.27331,0.348 0.75799,0.29823 0.75799,0.29823 0,0 0.0953,-8.8e-4 0.0953,-8.8e-4 z" />
    <path
       style="fill:#000000;fill-opacity:1;fill-rule:evenodd;stroke:#000000;stroke-width:0.05716221px;stroke-linecap:butt;stroke-linejoin:miter;stroke-opacity:1"
       d="m -11.380458,184.01728 16.7661207,-0.0172 c 0.220989,-0.0477 0.4359579,-0.12325 0.63823,-0.22424 0.2453427,-0.1225 0.4736142,-0.28408 0.6531925,-0.49132 0.1795783,-0.20725 0.3089032,-0.46183 0.3472475,-0.73336 0.029233,-0.20701 0.00542,-0.41949 -0.052855,-0.62026 -0.058274,-0.20077 -0.1503503,-0.39049 -0.2576247,-0.56993 -0.1083464,-0.18123 -0.2335366,-0.35406 -0.3879038,-0.49812 -0.1543672,-0.14407 -0.3393507,-0.25885 -0.5435462,-0.31259 -0.095492,-0.0251 -0.1945222,-0.0368 -0.29324,-0.0345 l -2.8116,-0.0517 c -0.092374,-0.0189 -0.1771816,-0.0727 -0.2337575,-0.1481 -0.056576,-0.0754 -0.084411,-0.1719 -0.076722,-0.26588 0.00618,-0.0756 0.034395,-0.14807 0.072489,-0.21362 0.038095,-0.0656 0.085964,-0.12485 0.1344906,-0.18311 0.3884935,-0.46643 0.8319079,-0.88576 1.20744,-1.36268 0.841468,-1.06866 1.3166524,-2.41767 1.34543,-3.77755 0.021903,-1.03503 -0.2087996,-2.06893 -0.62097,-3.0186 -0.2061721,-0.47504 -0.4574383,-0.93049 -0.74932,-1.35824 -0.053212,-0.1001 -0.1287649,-0.18824 -0.21955,-0.25613 -0.059148,-0.0442 -0.1254243,-0.0802 -0.197163,-0.0978 -0.071739,-0.0176 -0.1492941,-0.0159 -0.217537,0.0124 -0.056357,0.0233 -0.1041972,0.0635 -0.1464484,0.10749 -0.042251,0.044 -0.079817,0.0923 -0.1218816,0.13645 -0.077362,0.0812 -0.1643114,0.15273 -0.24394,0.23174 l -4.69583,4.65924 c -0.2531652,0.27633 -0.6045332,0.4608 -0.97575,0.51227 -0.3015276,0.0418 -0.6154205,-0.004 -0.89038,-0.13417 -0.400295,-0.19017 -0.7076789,-0.56182 -0.8294,-0.98795 -0.1177075,-0.41208 -0.062767,-0.87002 0.14637,-1.24409 0.061253,-0.10956 0.1350737,-0.21208 0.21955,-0.30492 l 5.35446004,-5.36666 c 0.10159876,-0.0935 0.16435726,-0.22798 0.17075996,-0.36591 0.0048,-0.10338 -0.020953,-0.2067 -0.063903,-0.30086 -0.04295,-0.0942 -0.10269744,-0.17979 -0.16784706,-0.2602 -0.11067698,-0.13661 -0.23793896,-0.25977 -0.3781,-0.36591 l -2.18326004,-2.09788 0.003,-0.18437 c 1.232e-4,-0.008 2.862e-4,-0.0152 0.00146,-0.0227 0.00117,-0.007 0.00337,-0.0149 0.00699,-0.0215 0.00362,-0.007 0.00865,-0.0126 0.014771,-0.017 0.00612,-0.004 0.013297,-0.007 0.020762,-0.009 0.014929,-0.003 0.030391,0.002 0.043468,0.01 0.013077,0.008 0.02417,0.0182 0.036224,0.0274 0.027752,0.0211 0.061024,0.0347 0.095456,0.0402 0.034432,0.006 0.069978,0.003 0.1037431,-0.006 0.067531,-0.0175 0.1267157,-0.0601 0.1729067,-0.11233 0.092382,-0.10454 0.1340557,-0.24295 0.19675424,-0.36758 0.0905988,-0.18009 0.2264903,-0.33308 0.36697791,-0.47766 0.1404876,-0.14457 0.28784822,-0.28383 0.40799209,-0.44571 0.212730012305,-0.28663 0.33226975,-0.63643 0.37020433,-0.99135 0.0379346,-0.35492 -0.003194,-0.71524 -0.08990433,-1.06149 -0.12092288,-0.48287 -0.33227286,-0.94546 -0.63801676,-1.33827 -0.3057439,-0.39282 -0.70737998,-0.71426 -1.16749328,-0.9042 -0.6568843,-0.27117 -1.4133136,-0.26268 -2.08583,-0.033 -0.5925216,0.20236 -1.1264627,0.57253 -1.5252,1.05527 -0.4990494,0.60419 -0.782482,1.39495 -0.72551,2.17652 0.047983,0.65825 0.3365404,1.29437 0.79147,1.77253 0.3311529,0.34806 0.7482483,0.61375 1.20367,0.76673 -0.3225105,0.26724 -0.638663,0.54215 -0.9481,0.82443 -0.8534159,0.77851 -1.655475,1.61284 -2.4073604,2.4898 -0.5812406,0.67793 -1.1327272,1.38156 -1.64698,2.11161 -0.8694609,1.23431 -1.6476133,2.58676 -1.8654903,4.08075 -0.234668,1.60913 0.214794,3.2779 1.0843203,4.65206 0.3979493,0.6289 0.8818755,1.20331 1.43409,1.70225 0.033426,0.0153 0.064869,0.035 0.0933,0.0583 0.055531,0.0456 0.099439,0.1055 0.1245204,0.1728 0.025082,0.0673 0.031068,0.14186 0.01538,0.21195 -0.017618,0.0787 -0.06274,0.15098 -0.1257235,0.20137 -0.062983,0.0504 -0.1433981,0.0786 -0.2240565,0.0785 -0.9132894,-0.008 -1.8266093,-0.0115 -2.7399303,-0.0117 -0.05441,-1e-5 -0.10882,-1e-5 -0.16323,0 -0.319128,0.12735 -0.616266,0.3096 -0.87444,0.53633 -0.264713,0.23247 -0.493622,0.52201 -0.58297,0.86279 -0.06313,0.24078 -0.05329,0.49805 0.01242,0.73813 0.06571,0.24009 0.185959,0.4634 0.337358,0.66098 0.265346,0.34628 0.629267,0.61615 1.03768,0.76951 l 0.1377,0.007 z"
       id="path838"
       inkscape:connector-curvature="0"
       inkscape:path-effect="#path-effect840"
       inkscape:original-d="m -11.380458,184.01728 c 0,0 16.7661207,-0.0172 16.7661207,-0.0172 0,0 0.42554,-0.14955 0.63823,-0.22424 0.21267,-0.0747 0.66702,-0.81651 1.00044,-1.22468 0.33342,-0.40818 -0.20693,-0.79352 -0.31048,-1.19019 -0.10356,-0.39667 -0.62091,-0.54053 -0.93145,-0.81071 -0.31055,-0.27018 -0.29324,-0.0345 -0.29324,-0.0345 0,0 -2.8116,-0.0517 -2.8116,-0.0517 0,0 -0.20693,-0.27605 -0.31048,-0.41398 -0.10356,-0.13794 0.13804,-0.26455 0.20698,-0.39673 0.0689,-0.13219 0.80502,-0.90851 1.20744,-1.36268 0.40242,-0.45417 0.89701,-2.51843 1.34543,-3.77755 0.44842,-1.25913 -0.41392,-2.01246 -0.62097,-3.0186 -0.20705,-1.00614 -0.74932,-1.35824 -0.74932,-1.35824 0,0 -0.14631,-0.17081 -0.21955,-0.25613 -0.0732,-0.0853 -0.27641,-0.057 -0.4147,-0.0854 -0.13829,-0.0284 -0.17883,0.16257 -0.26833,0.24394 -0.0895,0.0814 -0.24394,0.23174 -0.24394,0.23174 0,0 -4.69583,4.65924 -4.69583,4.65924 0,0 -0.65044,0.34145 -0.97575,0.51227 -0.32531,0.17081 -0.59353,-0.0895 -0.89038,-0.13417 -0.29685,-0.0447 -0.55287,-0.65869 -0.8294,-0.98795 -0.27652,-0.32926 0.0976,-0.82945 0.14637,-1.24409 0.0487,-0.41464 0.21955,-0.30492 0.21955,-0.30492 0,0 5.35446004,-5.36666 5.35446004,-5.36666 0,0 0.11388996,-0.244 0.17075996,-0.36591 0.0568,-0.12192 -0.15443996,-0.3741 -0.23174996,-0.56106 -0.0773,-0.18697 -0.3781,-0.36591 -0.3781,-0.36591 0,0 -2.18326004,-2.09788 -2.18326004,-2.09788 0,0 0.002,-0.12297 0.003,-0.18437 10e-4,-0.0614 0.0825,-0.022 0.12367,-0.033 0.0412,-0.0109 0.37929,-0.29686 0.56886004,-0.4452 0.18956,-0.14834 0.5167,-0.61563 0.77497,-0.92337 0.25826,-0.30773 0.18692,-1.36862 0.2803,-2.05284 0.0934,-0.68422 -1.20362004,-1.49504 -1.80551004,-2.24247 -0.6019,-0.74743 -1.39049,-0.022 -2.08583,-0.033 -0.69532,-0.0109 -1.01674,0.70346 -1.5252,1.05527 -0.50846,0.35182 -0.48361,1.45095 -0.72551,2.17652 -0.24188,0.72556 0.5277,1.18163 0.79147,1.77253 0.26376,0.5909 1.20367,0.76673 1.20367,0.76673 0,0 -0.63201,0.54956 -0.9481,0.82443 -0.31609,0.27487 -1.6048404,1.65981 -2.4073604,2.4898 -0.8025,0.82999 -1.09793,1.40768 -1.64698,2.11161 -0.54906,0.70393 -1.2436103,2.72045 -1.8654903,4.08075 -0.62188,1.36031 0.72294,3.10131 1.0843203,4.65206 0.36137,1.55074 1.43409,1.70225 1.43409,1.70225 0,0 0.0622,0.0388 0.0933,0.0583 0.031,0.0195 0.0933,0.25644 0.1399,0.38475 0.0466,0.12831 -0.34978,0.27983 -0.34978,0.27983 0,0 -1.8265603,-0.008 -2.7399303,-0.0117 -0.91337,-0.004 -0.16323,0 -0.16323,0 0,0 -0.5829,0.35749 -0.87444,0.53633 -0.29155,0.17883 -0.38859,0.57513 -0.58297,0.86279 -0.19437,0.28765 0.23325,0.93268 0.34978,1.39911 0.11654,0.46643 1.03768,0.76951 1.03768,0.76951 0,0 0.1377,0.007 0.1377,0.007 z" />
    <path
       style="fill:#000000;fill-opacity:1;fill-rule:evenodd;stroke:#000000;stroke-width:0.05716221px;stroke-linecap:butt;stroke-linejoin:miter;stroke-opacity:1"
       d="m -64.377195,214.02035 16.77772,0.0583 c 0.28267,-0.073 0.552363,-0.19591 0.79283,-0.36144 0.22315,-0.15361 0.422033,-0.34495 0.57113,-0.57114 0.149098,-0.2262 0.247341,-0.48792 0.26833,-0.75802 0.025,-0.32172 -0.06103,-0.64839 -0.22597,-0.92574 -0.164936,-0.27735 -0.406481,-0.506 -0.68345,-0.67158 -0.212224,-0.12687 -0.445801,-0.21793 -0.6879,-0.26816 l -2.46011,-0.035 c -0.04966,0.0123 -0.103132,0.009 -0.150789,-0.01 -0.04766,-0.0187 -0.08928,-0.0524 -0.117371,-0.0952 -0.02414,-0.0368 -0.03825,-0.0797 -0.04269,-0.12349 -0.0044,-0.0438 6.1e-4,-0.0882 0.01271,-0.13052 0.02419,-0.0846 0.0757,-0.15899 0.134917,-0.22402 0.179265,-0.19688 0.426551,-0.31453 0.65292,-0.45472 0.503207,-0.31165 0.919341,-0.74933 1.264554,-1.23013 0.345214,-0.4808 0.623243,-1.00597 0.892416,-1.53312 0.346426,-0.67844 0.682648,-1.37016 0.86279,-2.11033 0.185861,-0.76366 0.200403,-1.55756 0.19821,-2.34351 -0.0048,-1.73056 -0.08596,-3.46596 0.0816,-5.18839 0.09961,-1.02397 0.287069,-2.03937 0.55964,-3.03141 0.192624,0.0314 0.387811,0.047 0.58297,0.0466 0.460541,-8.4e-4 0.936318,-0.0982 1.30584,-0.3731 0.297555,-0.22134 0.509984,-0.54949 0.609072,-0.90685 0.09909,-0.35737 0.08731,-0.74194 -0.01445,-1.09855 -0.136633,-0.47881 -0.443881,-0.91584 -0.87444,-1.16593 -0.256819,-0.14917 -0.552201,-0.2298 -0.84909,-0.23786 -0.29689,-0.008 -0.594806,0.0559 -0.86483,0.17956 -0.4052,0.18559 -0.747826,0.50943 -0.9444,0.90942 -0.150234,0.30569 -0.214633,0.65301 -0.183979,0.99225 0.03065,0.33923 0.15627,0.66938 0.358869,0.94319 -0.416772,0.32744 -0.825033,0.66571 -1.22423,1.01436 -0.885268,0.77317 -1.746848,1.62696 -2.21526,2.70496 -0.03921,0.0902 -0.07564,0.182 -0.124122,0.26761 -0.04848,0.0856 -0.110054,0.16569 -0.190678,0.22208 -0.08877,0.0621 -0.20047,0.0929 -0.30774,0.0778 -0.107269,-0.0151 -0.208367,-0.0778 -0.26357,-0.17105 -0.05137,-0.0867 -0.061,-0.19107 -0.07,-0.29148 -0.159189,-1.77637 -0.495628,-3.5368 -1.0027,-5.24668 0.284648,-0.0566 0.553429,-0.19102 0.76952,-0.38476 0.314798,-0.28224 0.510044,-0.68172 0.59462,-1.09597 0.118489,-0.58036 0.01888,-1.21794 -0.33812,-1.6906 -0.234846,-0.31093 -0.573554,-0.54068 -0.947427,-0.65046 -0.373872,-0.10978 -0.780843,-0.10009 -1.151253,0.0209 -0.569988,0.18612 -1.045026,0.64086 -1.25919,1.20091 -0.134624,0.35205 -0.168758,0.74312 -0.08887,1.11147 0.07989,0.36835 0.274679,0.71219 0.555239,0.96388 0.181461,0.16279 0.39752,0.28682 0.6296,0.36144 -0.24336,0.47103 -0.488208,0.94129 -0.73454,1.41077 -0.661214,1.2602 -1.341018,2.53617 -1.6323,3.92918 -0.01657,0.0792 -0.03198,0.15919 -0.06104,0.23474 -0.02906,0.0755 -0.07298,0.14734 -0.137167,0.19666 -0.05235,0.0402 -0.117029,0.064 -0.182934,0.068 -0.06591,0.004 -0.132781,-0.012 -0.190156,-0.0447 -0.06544,-0.0373 -0.117375,-0.095 -0.157693,-0.15861 -0.04032,-0.0636 -0.06986,-0.13332 -0.09882,-0.20283 -0.45496,-1.09209 -0.813316,-2.22391 -1.30584,-3.29958 -0.324873,-0.70952 -0.707414,-1.39263 -1.14261,-2.04037 0.443559,-0.14495 0.825056,-0.47072 1.03768,-0.88611 0.139515,-0.27256 0.207396,-0.58041 0.20288,-0.88657 -0.0045,-0.30616 -0.08078,-0.61023 -0.21458,-0.88564 -0.126566,-0.26051 -0.305095,-0.49652 -0.526429,-0.68333 -0.221335,-0.1868 -0.485645,-0.32374 -0.767751,-0.38933 -0.355932,-0.0828 -0.736766,-0.0497 -1.075874,0.0864 -0.339108,0.13617 -0.635565,0.37402 -0.847906,0.67142 -0.187678,0.26286 -0.310392,0.57228 -0.350189,0.8928 -0.0398,0.32052 0.0038,0.6515 0.128659,0.94937 0.211474,0.50448 0.66236,0.90232 1.18925,1.04933 -0.144388,0.84158 -0.319432,1.6779 -0.52467,2.50675 -0.239206,0.96603 -0.521863,1.94606 -0.44305,2.93814 0.0056,0.0708 0.0131,0.14206 0.0063,0.21279 -0.0068,0.0707 -0.02916,0.14211 -0.0763,0.19528 -0.03373,0.038 -0.07901,0.0652 -0.127737,0.0797 -0.04873,0.0145 -0.100779,0.0166 -0.151019,0.009 -0.100479,-0.0156 -0.191481,-0.0696 -0.269224,-0.1351 -0.1486,-0.12527 -0.254889,-0.29216 -0.36144,-0.45471 -0.467357,-0.71297 -0.983987,-1.39332 -1.53903,-2.04037 -0.326023,-0.38007 -0.666516,-0.74987 -1.04933,-1.07266 -0.251733,-0.21226 -0.521129,-0.40357 -0.80449,-0.5713 0.179308,-0.27376 0.299428,-0.58607 0.34978,-0.90943 0.07567,-0.48597 -0.01334,-1.00515 -0.29148,-1.41077 -0.318804,-0.46492 -0.871298,-0.74899 -1.4341,-0.78117 -0.453395,-0.0259 -0.915819,0.1052 -1.28252,0.3731 -0.504313,0.36843 -0.808359,0.99667 -0.78117,1.62064 0.01463,0.33566 0.120634,0.66696 0.304021,0.94848 0.183387,0.28151 0.443708,0.51245 0.745309,0.6605 0.437601,0.21481 0.960529,0.24911 1.42244,0.0933 0.0834,0.29287 0.157292,0.58845 0.22152,0.88611 0.194479,0.9013 0.299972,1.81994 0.36144,2.73993 0.07778,1.16408 0.08546,2.33152 0.11659,3.49778 0.04162,1.55945 0.128344,3.13645 0.58297,4.62874 0.459181,1.50724 1.337859,2.94321 2.68163,3.76595 0.234234,0.14341 0.484212,0.27001 0.67624,0.46637 0.03169,0.0324 0.06177,0.0668 0.08519,0.10558 0.02341,0.0388 0.04002,0.0824 0.04307,0.12761 0.0045,0.067 -0.02162,0.13419 -0.06531,0.18514 -0.04369,0.051 -0.103844,0.0863 -0.167884,0.10634 -0.08662,0.0272 -0.18154,0.0272 -0.26816,0 l -2.20361,-0.035 c -0.378892,0.0946 -0.732247,0.2896 -1.01436,0.55965 -0.210019,0.20104 -0.381531,0.44474 -0.484205,0.71674 -0.102673,0.272 -0.134773,0.57265 -0.07543,0.85726 0.04743,0.22751 0.152032,0.44127 0.291237,0.62737 0.139206,0.1861 0.312475,0.34519 0.501593,0.48026 0.160335,0.11452 0.332561,0.21237 0.51301,0.29149 l 0.18655,0.0233 z"
       id="path842"
       inkscape:connector-curvature="0"
       inkscape:path-effect="#path-effect844"
       inkscape:original-d="m -64.377195,214.02035 c 0,0 16.77772,0.0583 16.77772,0.0583 0,0 0.5286,-0.24102 0.79283,-0.36144 0.26422,-0.12042 0.5597,-0.88616 0.83946,-1.32916 0.27977,-0.44299 -0.60622,-1.06493 -0.90942,-1.59732 -0.3032,-0.53238 -0.6879,-0.26816 -0.6879,-0.26816 0,0 -2.46011,-0.035 -2.46011,-0.035 0,0 -0.17872,-0.07 -0.26816,-0.10493 -0.0894,-0.0349 0.07,-0.31875 0.10493,-0.47803 0.0349,-0.15929 0.43534,-0.3032 0.65292,-0.45472 0.21758,-0.15151 1.43804,-1.84222 2.15697,-2.76325 0.71893,-0.92102 0.57525,-1.40694 0.86279,-2.11033 0.28753,-0.70338 0.1322,-1.5624 0.19821,-2.34351 0.066,-0.78112 0.0545,-3.45898 0.0816,-5.18839 0.0272,-1.7294 0.55964,-3.03141 0.55964,-3.03141 0,0 0.38871,0.031 0.58297,0.0466 0.19426,0.0156 0.87062,-0.24879 1.30584,-0.3731 0.43523,-0.12431 0.39648,-1.33699 0.59462,-2.0054 0.19816,-0.66841 -0.5829,-0.77734 -0.87444,-1.16593 -0.29154,-0.38858 -1.14255,-0.0389 -1.71392,-0.0583 -0.57136,-0.0194 -0.62954,0.60622 -0.9444,0.90942 -0.31486,0.3032 0.17489,1.93544 0.17489,1.93544 0,0 -0.81609,0.67618 -1.22423,1.01436 -0.40813,0.33818 -1.47678,1.80325 -2.21526,2.70496 -0.73848,0.9017 -0.20981,0.3264 -0.3148,0.48969 -0.10499,0.16328 -0.38081,-0.0622 -0.57131,-0.0933 -0.19048,-0.031 -0.0466,-0.19438 -0.07,-0.29148 -0.0234,-0.0971 -1.0027,-5.24668 -1.0027,-5.24668 0,0 0.51307,-0.25656 0.76952,-0.38476 0.25644,-0.12819 0.39647,-0.7307 0.59462,-1.09597 0.19815,-0.36527 -0.22536,-1.12712 -0.33812,-1.6906 -0.11276,-0.56347 -1.39906,-0.41979 -2.09868,-0.6296 -0.69961,-0.20981 -0.83941,0.80055 -1.25919,1.20091 -0.4198,0.40036 0.31096,1.38351 0.46637,2.07535 0.1554,0.69185 0.6296,0.36144 0.6296,0.36144 0,0 -0.48964,0.94046 -0.73454,1.41077 -0.2449,0.47032 -1.08814,2.6194 -1.6323,3.92918 -0.54415,1.30979 -0.13208,0.28754 -0.19821,0.4314 -0.0661,0.14385 -0.24867,0.0155 -0.37309,0.0233 -0.12443,0.008 -0.17095,-0.24102 -0.25651,-0.36144 -0.0856,-0.12042 -0.8705,-2.19978 -1.30584,-3.29958 -0.43533,-1.0998 -1.14261,-2.04037 -1.14261,-2.04037 0,0 0.69184,-0.5908 1.03768,-0.88611 0.34583,-0.29531 -0.008,-1.18153 -0.0117,-1.77221 -0.004,-0.59068 -0.86273,-0.71516 -1.29418,-1.07266 -0.43145,-0.35749 -1.28246,0.50518 -1.92378,0.75786 -0.64131,0.25267 -0.14763,1.22805 -0.22153,1.84217 -0.0739,0.61411 1.18925,1.04933 1.18925,1.04933 0,0 -0.34972,1.67111 -0.52467,2.50675 -0.17494,0.83564 -0.29531,1.9587 -0.44305,2.93814 -0.14774,0.97943 -0.0466,0.27199 -0.07,0.40807 -0.0234,0.13608 -0.36526,-0.0311 -0.54798,-0.0466 -0.18272,-0.0155 -0.24091,-0.3032 -0.36144,-0.45471 -0.12054,-0.15151 -1.02596,-1.3603 -1.53903,-2.04037 -0.51306,-0.68007 -0.6995,-0.71516 -1.04933,-1.07266 -0.34984,-0.35749 -0.80449,-0.5713 -0.80449,-0.5713 0,0 0.23324,-0.60634 0.34978,-0.90943 0.11653,-0.30308 -0.19427,-0.94057 -0.29148,-1.41077 -0.0972,-0.4702 -0.95601,-0.52084 -1.4341,-0.78117 -0.47808,-0.26034 -0.85495,0.24867 -1.28252,0.3731 -0.42756,0.12442 -0.52072,1.08036 -0.78117,1.62064 -0.26045,0.54027 0.69961,1.07259 1.04933,1.60898 0.34973,0.53638 1.42244,0.0933 1.42244,0.0933 0,0 0.14774,0.59068 0.22152,0.88611 0.0738,0.29542 0.24102,1.82656 0.36144,2.73993 0.12043,0.91337 0.0778,2.3318 0.11659,3.49778 0.0388,1.16599 0.3887,3.08577 0.58297,4.62874 0.19426,1.54297 1.78781,2.51058 2.68163,3.76595 0.89382,1.25537 0.45089,0.31086 0.67624,0.46637 0.22536,0.15552 0.0856,0.1554 0.12826,0.23319 0.0427,0.0778 -0.1554,0.19426 -0.23319,0.29148 -0.0778,0.0972 -0.26816,0 -0.26816,0 0,0 -2.20361,-0.035 -2.20361,-0.035 0,0 -0.67618,0.37304 -1.01436,0.55965 -0.33817,0.1866 -0.37303,1.04928 -0.55964,1.574 -0.18661,0.52473 0.52861,0.73836 0.79283,1.10763 0.26422,0.36927 0.51301,0.29149 0.51301,0.29149 0,0 0.18655,0.0233 0.18655,0.0233 z" />
    <path
       style="fill:#000000;fill-opacity:1;fill-rule:evenodd;stroke:#000000;stroke-width:0.05716221px;stroke-linecap:butt;stroke-linejoin:miter;stroke-opacity:1"
       d="m 4.6247344,296.92191 17.1153006,0.0495 c 0.413082,-0.11153 0.788574,-0.35795 1.05528,-0.69253 0.160794,-0.20172 0.282827,-0.43532 0.348187,-0.68486 0.06536,-0.24954 0.0733,-0.51497 0.01455,-0.76615 -0.105503,-0.45113 -0.424982,-0.83706 -0.82443,-1.07176 -0.236903,-0.1392 -0.502354,-0.22956 -0.77498,-0.26382 l -1.68183,-0.066 c 0.497747,-0.26102 0.982238,-0.54731 1.45098,-0.85741 1.196715,-0.7917 2.297602,-1.74727 3.14935,-2.90201 1.068782,-1.44899 1.725842,-3.2129 1.78078,-5.01258 0.04568,-1.49627 -0.341022,-3.03411 -1.25313,-4.22111 -0.916187,-1.19231 -2.317622,-1.96569 -3.79241,-2.25895 -1.0826,-0.21527 -2.214526,-0.18472 -3.28126,0.0989 -0.673381,0.17904 -1.320152,0.45782 -1.91268,0.82444 -0.09637,-0.1823 -0.212703,-0.35404 -0.34626,-0.51115 -0.304394,-0.35807 -0.699343,-0.63855 -1.13772,-0.80795 l -0.0495,-1.68185 h 1.69833 c 0.300151,-0.0881 0.564563,-0.2924 0.72551,-0.56062 0.112328,-0.1872 0.174778,-0.40389 0.18022,-0.62213 0.0054,-0.21825 -0.04604,-0.43756 -0.14722,-0.63101 -0.151651,-0.28996 -0.416567,-0.51874 -0.72551,-0.62657 l -1.7313,-0.0165 0.033,-1.66536 c -0.120858,-0.3715 -0.422515,-0.67944 -0.79144,-0.80794 -0.3285,-0.11442 -0.696328,-0.0884 -1.02231,0.033 -0.179341,0.0668 -0.349826,0.16278 -0.486871,0.29636 -0.137045,0.13358 -0.239289,0.30647 -0.271599,0.4951 -0.01492,0.0871 -0.01492,0.17673 0,0.26382 v 1.45101 h -1.764301 c -0.3321262,0.0856 -0.6197159,0.32941 -0.7584696,0.64306 -0.094948,0.21463 -0.1214682,0.45791 -0.081602,0.68919 0.039867,0.23129 0.145171,0.45005 0.2959416,0.62991 0.1534972,0.18311 0.3541017,0.3264 0.5770996,0.41221 l 1.780781,0.0165 -0.066,1.5994 c -0.236365,0.0794 -0.459934,0.19682 -0.65954,0.34627 -0.356764,0.26712 -0.634901,0.63798 -0.79144,1.05527 -0.326813,-0.20133 -0.6688842,-0.37788 -1.0223106,-0.52764 -1.3847219,-0.58677 -2.9534001,-0.74959 -4.41898,-0.41221 -0.9146815,0.21056 -1.7869612,0.61374 -2.5264397,1.1918 -0.7394784,0.57806 -1.3440185,1.33176 -1.72765026,2.18838 -0.43688916,0.97555 -0.58160617,2.06532 -0.52764,3.13286 0.10045776,1.98723 0.88490236,3.91983 2.12703996,5.47426 1.1186401,1.39988 2.6059607,2.50245 4.27058,3.16583 l -1.96216,0.11542 c -0.5132462,0.10327 -0.9732995,0.4452 -1.22016,0.90688 -0.2310351,0.43208 -0.272746,0.96125 -0.1122602,1.42419 0.1604858,0.46294 0.5207725,0.85275 0.9696702,1.04912 l 0.2968,0.11542 z"
       id="path846"
       inkscape:connector-curvature="0"
       inkscape:path-effect="#path-effect848"
       inkscape:original-d="m 4.6247344,296.92191 c 0,0 17.1153006,0.0495 17.1153006,0.0495 0,0 0.70358,-0.46174 1.05528,-0.69253 0.3517,-0.23078 0.24188,-0.96739 0.36274,-1.45101 0.12086,-0.48361 -0.54958,-0.71456 -0.82443,-1.07176 -0.27488,-0.3572 -0.77498,-0.26382 -0.77498,-0.26382 0,0 -1.68183,-0.066 -1.68183,-0.066 0,0 0.96739,-0.57166 1.45098,-0.85741 0.48362,-0.28575 2.09963,-1.93474 3.14935,-2.90201 1.04973,-0.96729 1.18724,-3.34178 1.78078,-5.01258 0.59355,-1.6708 -0.83536,-2.81413 -1.25313,-4.22111 -0.41777,-1.40698 -2.52821,-1.50603 -3.79241,-2.25895 -1.26419,-0.75293 -2.18744,0.0659 -3.28126,0.0989 -1.0938,0.033 -1.91268,0.82444 -1.91268,0.82444 0,0 -0.23078,-0.34083 -0.34626,-0.51115 -0.11548,-0.17033 -1.13772,-0.80795 -1.13772,-0.80795 0,0 -0.0495,-1.68185 -0.0495,-1.68185 0,0 1.69833,0 1.69833,0 0,0 0.48373,-0.3738 0.72551,-0.56062 0.24178,-0.18681 0.022,-0.83548 0.033,-1.25314 0.011,-0.41766 -0.72551,-0.62657 -0.72551,-0.62657 0,0 -1.7313,-0.0165 -1.7313,-0.0165 0,0 0.033,-1.66536 0.033,-1.66536 0,0 -0.52756,-0.53869 -0.79144,-0.80794 -0.26388,-0.26926 -0.68149,0.0219 -1.02231,0.033 -0.34083,0.011 -0.50559,0.52759 -0.75847,0.79146 -0.25288,0.26388 0,0.26382 0,0.26382 0,0 0,1.45101 0,1.45101 0,0 -1.764301,0 -1.764301,0 0,0 -0.5056096,0.42865 -0.7584696,0.64306 -0.2529,0.21441 0.14293,0.87934 0.21434,1.3191 0.0714,0.43975 0.5770996,0.41221 0.5770996,0.41221 0,0 1.780781,0.0165 1.780781,0.0165 0,0 -0.066,1.5994 -0.066,1.5994 0,0 -0.43963,0.23079 -0.65954,0.34627 -0.21992,0.11547 -0.79144,1.05527 -0.79144,1.05527 0,0 -0.6815006,-0.35181 -1.0223106,-0.52764 -0.34084,-0.17582 -2.94594,-0.27486 -4.41898,-0.41221 -1.47305,-0.13735 -2.83601,2.2534 -4.25408996,3.38018 -1.41809,1.12679 -0.35171,2.08852 -0.52764,3.13286 -0.17594,1.04434 1.41808996,3.64945 2.12703996,5.47426 0.70896,1.8248 4.27058,3.16583 4.27058,3.16583 0,0 -1.96216,0.11542 -1.96216,0.11542 0,0 -0.81338,0.60453 -1.22016,0.90688 -0.40678,0.30235 0.85741,2.47331 0.85741,2.47331 0,0 0.2968,0.11542 0.2968,0.11542 z" />
  </g>
</svg>
