<?xml version="1.0" encoding="UTF-8" standalone="no"?>
<!-- Created with Inkscape (http://www.inkscape.org/) -->

<svg
   xmlns:dc="http://purl.org/dc/elements/1.1/"
   xmlns:cc="http://creativecommons.org/ns#"
   xmlns:rdf="http://www.w3.org/1999/02/22-rdf-syntax-ns#"
   xmlns:svg="http://www.w3.org/2000/svg"
   xmlns="http://www.w3.org/2000/svg"
   xmlns:sodipodi="http://sodipodi.sourceforge.net/DTD/sodipodi-0.dtd"
   xmlns:inkscape="http://www.inkscape.org/namespaces/inkscape"
   width="210mm"
   height="297mm"
   viewBox="0 0 210 297"
   version="1.1"
   id="svg8"
   inkscape:version="0.92.3 (2405546, 2018-03-11)"
   sodipodi:docname="pionki.svg">
  <defs
     id="defs2">
    <inkscape:path-effect
       effect="spiro"
       id="path-effect848"
       is_visible="true" />
    <inkscape:path-effect
       effect="spiro"
       id="path-effect844"
       is_visible="true" />
    <inkscape:path-effect
       effect="spiro"
       id="path-effect840"
       is_visible="true" />
    <inkscape:path-effect
       effect="spiro"
       id="path-effect836"
       is_visible="true" />
    <inkscape:path-effect
       effect="spiro"
       id="path-effect832"
       is_visible="true" />
    <inkscape:path-effect
       effect="spiro"
       id="path-effect828"
       is_visible="true" />
  </defs>
  <sodipodi:namedview
     id="base"
     pagecolor="#ffffff"
     bordercolor="#666666"
     borderopacity="1.0"
     inkscape:pageopacity="0.0"
     inkscape:pageshadow="2"
     inkscape:zoom="0.30642"
     inkscape:cx="3165.85"
     inkscape:cy="1236.0988"
     inkscape:document-units="mm"
     inkscape:current-layer="layer1"
     showgrid="false"
     inkscape:window-width="3840"
     inkscape:window-height="2093"
     inkscape:window-x="-9"
     inkscape:window-y="-9"
     inkscape:window-maximized="1" />
  <metadata
     id="metadata5">
    <rdf:RDF>
      <cc:Work
         rdf:about="">
        <dc:format>image/svg+xml</dc:format>
        <dc:type
           rdf:resource="http://purl.org/dc/dcmitype/StillImage" />
        <dc:title></dc:title>
      </cc:Work>
    </rdf:RDF>
  </metadata>
  <g
     inkscape:label="Layer 1"
     inkscape:groupmode="layer"
     id="layer1">
    <path
       style="fill:#000000;fill-opacity:1;fill-rule:evenodd;stroke:#000000;stroke-width:0.26458332px;stroke-linecap:butt;stroke-linejoin:miter;stroke-opacity:1"
       d="m -283.86012,-184.16369 77.86309,0.28349 c 0.35011,-0.0402 0.69758,-0.10341 1.03944,-0.18899 1.62862,-0.40769 3.12139,-1.33711 4.21093,-2.61442 1.08954,-1.27731 1.77151,-2.89587 1.93116,-4.56713 0.18362,-1.92223 -0.33023,-3.90358 -1.42491,-5.49429 -1.09468,-1.59071 -2.76172,-2.77847 -4.6227,-3.29366 l -6.42559,-0.18898 c -3.40519,-1.88689 -6.46332,-4.39777 -8.97694,-7.37054 -3.47634,-4.11134 -5.86905,-9.03425 -7.74851,-14.07961 -2.14824,-5.76692 -3.67189,-11.76626 -4.53572,-17.85938 2.49276,-1.10782 4.87164,-2.4717 7.08707,-4.06324 5.2698,-3.78575 9.62635,-8.92944 12.09522,-14.93006 2.04052,-4.95951 2.76365,-10.44476 2.14936,-15.77234 -0.61429,-5.32757 -2.55791,-10.48839 -5.55114,-14.93822 -3.82251,-5.68267 -9.37375,-10.19489 -15.73751,-12.72608 -6.36377,-2.53118 -13.51459,-3.06262 -20.17023,-1.44804 -7.89705,1.91573 -15.01195,6.87319 -19.56027,13.60715 -4.28658,6.34645 -6.27069,14.2013 -5.57514,21.82812 0.56502,6.19559 2.8743,12.22651 6.61458,17.19792 3.66652,4.87337 8.6949,8.71082 14.36309,10.96131 -0.0611,0.44124 -0.12412,0.88222 -0.18899,1.32292 -1.17459,7.9798 -3.00895,15.9903 -6.89806,23.05654 -3.33176,6.05358 -8.14037,11.28745 -13.89062,15.11905 -2.017,-0.0774 -4.03938,-0.0142 -6.04761,0.18899 -0.28378,0.0287 -0.56729,0.0602 -0.85045,0.0945 -1.18277,0.61791 -2.27035,1.41761 -3.21281,2.36235 -1.25291,1.25595 -2.26167,2.80377 -2.64583,4.53571 -0.4006,1.80605 -0.0918,3.7419 0.75596,5.38617 0.4653,0.90249 1.09319,1.72816 1.88192,2.3676 0.78873,0.63945 1.74199,1.08771 2.74829,1.22317 0.43834,0.059 0.88458,0.059 1.32292,0 z"
       id="path826"
       inkscape:connector-curvature="0"
       inkscape:path-effect="#path-effect828"
       inkscape:original-d="m -283.86012,-184.16369 c 0,0 77.86309,0.28349 77.86309,0.28349 0,0 0.69321,-0.12626 1.03944,-0.18899 0.34621,-0.0627 4.09501,-4.78797 6.14209,-7.18155 2.04711,-2.39358 -6.04761,-8.78795 -6.04761,-8.78795 0,0 -6.42559,-0.18898 -6.42559,-0.18898 0,0 -5.98437,-4.91396 -8.97694,-7.37054 -2.99257,-2.45658 -5.16541,-9.38667 -7.74851,-14.07961 -2.5831,-4.69294 -4.53572,-17.85938 -4.53572,-17.85938 0,0 4.72498,-2.70909 7.08707,-4.06324 2.36207,-1.35415 8.06376,-9.95364 12.09522,-14.93006 4.03148,-4.97642 -2.26759,-20.47398 -3.40178,-30.71056 -1.13418,-10.23659 -23.93822,-9.44967 -35.90774,-14.17412 -11.96951,-4.72444 -13.03991,9.07118 -19.56027,13.60715 -6.52034,4.53598 -3.7165,14.55182 -5.57514,21.82812 -1.85865,7.27631 4.40999,11.46502 6.61458,17.19792 2.20461,5.7329 14.36309,10.96131 14.36309,10.96131 0,0 -0.12573,0.88168 -0.18899,1.32292 -0.0632,0.44123 -4.59843,15.37076 -6.89806,23.05654 -2.29962,7.68578 -13.89062,15.11905 -13.89062,15.11905 0,0 -4.03149,0.12573 -6.04761,0.18899 -2.01615,0.0633 -0.85045,0.0945 -0.85045,0.0945 0,0 -2.14159,1.57464 -3.21281,2.36235 -1.07119,0.78772 -1.76361,3.02355 -2.64583,4.53571 -0.8822,1.51217 0.50424,3.59051 0.75596,5.38617 0.25173,1.79565 3.08706,2.39358 4.63021,3.59077 1.54313,1.19719 1.32292,0 1.32292,0 z" />
    <path
       style="fill:#000000;fill-opacity:1;fill-rule:evenodd;stroke:#000000;stroke-width:0.26458332px;stroke-linecap:butt;stroke-linejoin:miter;stroke-opacity:1"
       d="m -147.89689,-183.76651 72.430031,-0.0668 c 0.587621,-0.01 1.173835,-0.10009 1.73726,-0.26727 2.027854,-0.6017 3.642755,-2.15807 4.87767,-3.8754 0.844138,-1.1739 1.567802,-2.49998 1.67042,-3.94223 0.08389,-1.17902 -0.260466,-2.36541 -0.854973,-3.38702 -0.594508,-1.02161 -1.429807,-1.88747 -2.352247,-2.62654 -1.274403,-1.02107 -2.729023,-1.81656 -4.27633,-2.33861 l -7.14944,-0.0668 c -0.305984,-0.1224 -0.598012,-0.27964 -0.86863,-0.46772 -1.139063,-0.79164 -1.858921,-2.15423 -1.87089,-3.54132 l -0.4009,-41.4936 13.49711,-0.20045 c 0.820109,-0.11979 1.61752,-0.39319 2.3386,-0.80181 0.544295,-0.30844 1.047385,-0.69562 1.457363,-1.16818 0.409979,-0.47256 0.725193,-1.03231 0.881237,-1.63815 0.123218,-0.47839 0.14612,-0.98238 0.0668,-1.46998 l -0.0668,-48.97714 c -0.01794,-0.57635 -0.155312,-1.14872 -0.4009,-1.67044 -0.371507,-0.78922 -0.993655,-1.45814 -1.753917,-1.88579 -0.760262,-0.42765 -1.654999,-0.61197 -2.522383,-0.51963 l -9.95579,-0.26727 c -0.921097,0.27844 -1.788073,0.73474 -2.53908,1.33635 -1.160309,0.92949 -2.055684,2.26258 -2.20496,3.74177 -0.04495,0.44543 -0.02235,0.89762 0.0668,1.33635 -0.218373,4.96359 -0.329771,9.93188 -0.33409,14.90027 -1.74e-4,0.20045 -1.74e-4,0.40091 0,0.60136 -0.03764,0.45952 -0.202579,0.90796 -0.471667,1.28235 -0.269087,0.37439 -0.641559,0.67366 -1.065113,0.85581 -0.377011,0.16213 -0.793496,0.23154 -1.20271,0.20045 l -9.68854,0.0668 c -0.636282,0.10292 -1.309321,-0.0414 -1.847491,-0.39607 -0.53817,-0.35471 -0.93615,-0.91633 -1.09246,-1.54164 -0.0707,-0.28306 -0.0934,-0.57807 -0.0668,-0.86862 0.45773,-5.50941 0.54709,-11.0494 0.26728,-16.57071 -0.0203,-0.40101 -0.0426,-0.80192 -0.0668,-1.20272 -0.19125,-0.80664 -0.61059,-1.5579 -1.19678,-2.14409 -0.58619,-0.58619 -1.33745,-1.00553 -2.14409,-1.19678 -0.56744,-0.13454 -1.16115,-0.15737 -1.73725,-0.0668 l -9.95577,-0.26727 c -1.01117,0.13395 -1.98667,0.5288 -2.80633,1.13589 -1.11915,0.82891 -1.93709,2.05582 -2.27179,3.40769 v 16.83798 c 0.002,0.6645 -0.20566,1.32798 -0.58514,1.87347 -0.37947,0.54549 -0.92947,0.97051 -1.55304,1.20013 -0.15229,0.0561 -0.30877,0.10079 -0.4677,0.13364 l -8.75308,-0.0668 c -0.71925,-0.0421 -1.42245,-0.3237 -1.972,-0.78963 -0.54956,-0.46593 -0.94238,-1.11358 -1.10161,-1.81625 -0.0793,-0.34972 -0.1019,-0.71221 -0.0668,-1.06908 0.2167,-5.47621 0.32809,-10.95659 0.33409,-16.43708 3.4e-4,-0.31181 3.4e-4,-0.62363 0,-0.93544 -0.25314,-0.79802 -0.74261,-1.51947 -1.39057,-2.04962 -0.64796,-0.53015 -1.45205,-0.86706 -2.28439,-0.95716 -0.31061,-0.0336 -0.62485,-0.0336 -0.93546,0 l -10.4235,-0.40091 c -0.99302,0.39879 -1.87905,1.06057 -2.54327,1.89958 -0.66422,0.83901 -1.10503,1.85325 -1.26533,2.91128 -0.0369,0.24338 -0.0592,0.48895 -0.0668,0.73499 l -0.53454,48.70987 c 0.0389,0.93649 0.4033,1.85635 1.01625,2.56546 0.61296,0.7091 1.47041,1.20275 2.39142,1.37676 0.3298,0.0623 0.66711,0.0848 1.00227,0.0668 l 14.09846,0.33409 -0.26726,41.35996 c 0.0263,0.94257 -0.26474,1.89122 -0.81508,2.6569 -0.55033,0.76568 -1.35674,1.34389 -2.25853,1.61941 -0.8214,0.25096 -1.71765,0.25096 -2.53905,0 l -4.87767,0.0668 c -2.4333,0.44465 -4.63144,2.03641 -5.81311,4.2095 -1.12097,2.06147 -1.31294,4.6017 -0.53454,6.81537 0.84282,2.39685 2.81491,4.36895 5.21177,5.21176 h 0.86862 z"
       id="path830"
       inkscape:connector-curvature="0"
       inkscape:path-effect="#path-effect832"
       inkscape:original-d="m -147.89689,-183.76651 c 0,0 72.430031,-0.0668 72.430031,-0.0668 0,0 1.15843,-0.17844 1.73726,-0.26727 0.5788,-0.0888 3.25205,-2.58387 4.87767,-3.8754 1.62563,-1.29154 1.11387,-2.62842 1.67042,-3.94223 0.55655,-1.31381 -2.13788,-4.00931 -3.20722,-6.01356 -1.06934,-2.00426 -4.27633,-2.33861 -4.27633,-2.33861 0,0 -7.14944,-0.0668 -7.14944,-0.0668 0,0 -0.57883,-0.31208 -0.86863,-0.46772 -0.28982,-0.15565 -1.87089,-3.54132 -1.87089,-3.54132 0,0 -0.4009,-41.4936 -0.4009,-41.4936 0,0 13.49711,-0.20045 13.49711,-0.20045 0,0 1.55932,-0.5348 2.3386,-0.80181 0.77928,-0.267 1.55935,-1.87115 2.3386,-2.80633 0.77928,-0.93518 0.0668,-1.46998 0.0668,-1.46998 0,0 -0.0668,-48.97714 -0.0668,-48.97714 0,0 -0.26699,-1.11389 -0.4009,-1.67044 -0.1339,-0.55654 -4.2763,-2.40542 -4.2763,-2.40542 0,0 -9.95579,-0.26727 -9.95579,-0.26727 0,0 -1.69244,0.89063 -2.53908,1.33635 -0.84661,0.44571 -1.46971,2.49425 -2.20496,3.74177 -0.73525,1.24752 0.0668,1.33635 0.0668,1.33635 0,0 -0.22246,9.93325 -0.33409,14.90027 -0.11163,4.96703 0,0.60136 0,0.60136 0,0 -1.02425,1.42517 -1.53678,2.13816 -0.51255,0.71298 -1.20271,0.20045 -1.20271,0.20045 0,0 -9.68854,0.0668 -9.68854,0.0668 0,0 -1.959691,-1.29207 -2.939951,-1.93771 -0.98025,-0.64563 -0.0668,-0.86862 -0.0668,-0.86862 0,0 0.17846,-11.04741 0.26728,-16.57071 0.0888,-5.52331 -0.0668,-1.20272 -0.0668,-1.20272 0,0 -2.22697,-2.22751 -3.34087,-3.34087 -1.11387,-1.11336 -1.73725,-0.0668 -1.73725,-0.0668 0,0 -9.95577,-0.26727 -9.95577,-0.26727 0,0 -1.87063,0.757 -2.80633,1.13589 -0.93573,0.3789 -2.27179,3.40769 -2.27179,3.40769 0,0 0,16.83798 0,16.83798 0,0 -1.42518,2.0488 -2.13818,3.0736 -0.71297,1.0248 -0.4677,0.13364 -0.4677,0.13364 0,0 -8.75308,-0.0668 -8.75308,-0.0668 0,0 -2.0488,-1.73752 -3.07361,-2.60588 -1.02479,-0.86836 -0.0668,-1.06908 -0.0668,-1.06908 0,0 0.22299,-10.95831 0.33409,-16.43708 0.1111,-5.47876 0,-0.93544 0,-0.93544 0,0 -2.44973,-2.00479 -3.67496,-3.00678 -1.22526,-1.002 -0.93546,0 -0.93546,0 0,0 -10.4235,-0.40091 -10.4235,-0.40091 0,0 -2.53881,3.20697 -3.8086,4.81086 -1.26978,1.60388 -0.0668,0.73499 -0.0668,0.73499 0,0 -0.53454,48.70987 -0.53454,48.70987 0,0 2.27206,2.62788 3.40767,3.94222 1.13565,1.31434 1.00227,0.0668 1.00227,0.0668 0,0 14.09846,0.33409 14.09846,0.33409 0,0 -0.26726,41.35996 -0.26726,41.35996 0,0 -2.0488,2.85061 -3.07361,4.27631 -1.02478,1.4257 -2.53905,0 -2.53905,0 0,0 -4.87767,0.0668 -4.87767,0.0668 0,0 -3.87514,2.80607 -5.81311,4.2095 -1.93797,1.40343 -0.3561,4.54331 -0.53454,6.81537 -0.17846,2.27206 5.21177,5.21176 5.21177,5.21176 0,0 0.86862,0 0.86862,0 z" />
    <path
       style="fill:#000000;fill-opacity:1;fill-rule:evenodd;stroke:#000000;stroke-width:0.26458332px;stroke-linecap:butt;stroke-linejoin:miter;stroke-opacity:1"
       d="m -23.842731,-184.00368 77.1073,-0.0668 c 2.594376,-0.31711 4.981614,-2.00374 6.147204,-4.34313 0.98176,-1.97043 1.094433,-4.34851 0.334,-6.41447 -0.571674,-1.55314 -1.621851,-2.92639 -2.97098,-3.88498 -1.349129,-0.95859 -2.991469,-1.49843 -4.646224,-1.52723 l -3.2072,-0.13364 v -5.34539 c 0,-0.73079 0.04349,-1.46947 0.263053,-2.1665 0.219563,-0.69702 0.587886,-1.33562 0.939647,-1.97618 3.105246,-5.6547 4.322589,-12.16572 4.736687,-18.60363 0.414099,-6.43791 0.06997,-12.90067 0.274613,-19.34864 0.184623,-5.81721 0.814818,-11.65918 0.1337,-17.43933 -0.57072,-4.84329 -2.059744,-9.55526 -4.1427,-13.96484 -2.921863,-6.18554 -7.060416,-11.84548 -12.3612,-16.16981 -5.189034,-4.23316 -11.455661,-7.13438 -18.0407,-8.35217 l -30.2683001,-0.20045 c -0.7358729,0.0618 -1.4303449,0.499 -1.8040999,1.13589 -0.239293,0.40776 -0.349085,0.8849 -0.34837,1.35769 7.14e-4,0.47279 0.108873,0.94163 0.28137,1.38183 0.560422,1.43016 1.7597315,2.51464 2.4722999,3.8754 0.899969,1.71863 0.9604512,3.773 0.6013,5.67948 -0.3870946,2.05481 -1.3720973,3.94443 -2.5389999,5.67948 l -17.84027,26.5265 c -0.593976,1.77272 -0.976184,3.61628 -1.13591,5.47903 -0.230506,2.68819 0.02592,5.49011 1.26955,7.88445 1.10006,2.11792 2.93981,3.81778 5.07812,4.87767 3.276287,1.62394 7.270111,1.72442 10.62391,0.26727 l 23.787,-14.90028 c 0.478911,-0.55596 1.137423,-0.9547 1.852018,-1.12144 0.714595,-0.16674 1.481578,-0.1006 2.157082,0.186 0.695575,0.29512 1.283209,0.81432 1.723796,1.42816 0.440586,0.61384 0.7401,1.32017 0.948904,2.04634 0.286256,0.99552 0.407004,2.04031 0.3341,3.0736 -0.159751,2.26421 -1.223757,4.35372 -1.8041,6.54811 -0.225567,0.85292 -0.380632,1.73112 -0.735,2.53906 -0.374016,0.85274 -0.952971,1.59855 -1.558137,2.30624 -0.605167,0.70768 -1.235665,1.39326 -1.852463,2.09084 l -9.4844001,10.72651 c -3.13509472,2.23065 -6.0515968,4.76837 -8.6942,7.56502 -3.8715669,4.09726 -7.1525599,8.7517 -9.7102999,13.7751 -0.351682,1.06542 -1.055954,2.01117 -1.97592,2.6534 -0.414354,0.28926 -0.877131,0.51506 -1.370418,0.62474 -0.493286,0.10969 -1.004957,0.0915 -1.508802,0.0527 l -2.93569,-0.22582 c -0.495435,0.15082 -0.985176,0.32035 -1.46783,0.5081 -1.840496,0.71594 -3.619469,1.73393 -4.85515,3.27441 -1.450726,1.80857 -2.02911,4.31409 -1.4114,6.54881 0.548209,1.98328 1.97881,3.65552 3.72608,4.74225 1.053274,0.65509 2.226478,1.11669 3.44376,1.35493 l 0.43307,-0.004 z"
       id="path834"
       inkscape:connector-curvature="0"
       inkscape:path-effect="#path-effect836"
       inkscape:original-d="m -23.842731,-184.00368 c 0,0 77.1073,-0.0668 77.1073,-0.0668 0,0 4.098404,-2.89569 6.147204,-4.34313 2.0488,-1.44745 0.2229,-4.27658 0.334,-6.41447 0.1111,-2.1379 -7.617204,-5.41221 -7.617204,-5.41221 0,0 -3.2072,-0.13364 -3.2072,-0.13364 0,0 0,-3.56385 0,-5.34539 -2e-4,-1.78153 0.8021,-2.76205 1.2027,-4.14268 0.4007,-1.38062 3.3412,-25.30177 5.0113,-37.95227 1.670204,-12.65049 0.089,-11.62649 0.1337,-17.43933 0.044,-5.81285 -2.7615,-9.31016 -4.1427,-13.96484 -1.3812,-4.65468 -8.2405,-10.78014 -12.3612,-16.16981 -4.1207,-5.38967 -18.0407,-8.35217 -18.0407,-8.35217 0,0 -30.2683001,-0.20045 -30.2683001,-0.20045 0,0 -1.2023999,0.757 -1.8040999,1.13589 -0.6016,0.3789 -0.044,1.82608 -0.067,2.73952 -0.023,0.91343 1.6483999,2.58334 2.4722999,3.8754 0.8238,1.29207 0.4011,3.78606 0.6013,5.67948 0.2002,1.89343 -2.5389999,5.67948 -2.5389999,5.67948 0,0 -17.84027,26.5265 -17.84027,26.5265 0,0 -0.757,3.65242 -1.13591,5.47903 -0.37888,1.82661 0.84664,5.25603 1.26955,7.88445 0.42291,2.62842 3.38566,3.25152 5.07812,4.87767 1.69243,1.62615 10.62391,0.26727 10.62391,0.26727 0,0 23.787,-14.90028 23.787,-14.90028 0,0 2.673,-0.62389 4.0091,-0.93544 1.336,-0.31155 1.782,2.31607 2.6727,3.4745 0.8906,1.15844 0.223,2.0488 0.3341,3.0736 0.1111,1.0248 -1.2025,4.36514 -1.8041,6.54811 -0.6016,2.18296 -0.4898,1.69244 -0.735,2.53906 -0.2453,0.84661 -3.4106,4.39708 -3.4106,4.39708 0,0 -9.4844001,10.72651 -9.4844001,10.72651 0,0 -5.7959,5.04308 -8.6942,7.56502 -2.8983,2.52193 -9.7102999,13.7751 -9.7102999,13.7751 0,0 -1.317,1.76867 -1.97592,2.6534 -0.65892,0.88473 -2.87922,0.67746 -2.87922,0.67746 0,0 -2.93569,-0.22582 -2.93569,-0.22582 0,0 -0.97829,0.33847 -1.46783,0.5081 -0.48953,0.16963 -3.23651,2.18267 -4.85515,3.27441 -1.61865,1.09173 -0.94065,4.36561 -1.4114,6.54881 -0.47072,2.18321 2.48431,3.16124 3.72608,4.74225 1.24174,1.58102 3.44376,1.35493 3.44376,1.35493 0,0 0.43307,-0.004 0.43307,-0.004 z" />
    <path
       style="fill:#000000;fill-opacity:1;fill-rule:evenodd;stroke:#000000;stroke-width:0.26458332px;stroke-linecap:butt;stroke-linejoin:miter;stroke-opacity:1"
       d="m 91.625114,-184.3489 77.604346,-0.0798 c 1.02287,-0.22088 2.01787,-0.57047 2.9541,-1.03791 1.13561,-0.56699 2.19221,-1.3149 3.02342,-2.27416 0.83121,-0.95927 1.42981,-2.13766 1.60729,-3.39448 0.1353,-0.95816 0.0251,-1.94165 -0.24466,-2.87096 -0.26974,-0.92931 -0.69593,-1.80743 -1.19247,-2.63799 -0.5015,-0.83885 -1.08096,-1.6388 -1.79547,-2.30562 -0.71451,-0.66683 -1.57073,-1.1981 -2.51587,-1.44685 -0.44199,-0.11633 -0.90036,-0.17026 -1.35728,-0.15969 l -13.0139,-0.23951 c -0.42757,-0.0876 -0.82012,-0.33634 -1.08199,-0.68551 -0.26187,-0.34916 -0.39071,-0.79565 -0.35512,-1.23065 0.0286,-0.34979 0.1592,-0.68534 0.33553,-0.98879 0.17633,-0.30345 0.39791,-0.57786 0.62252,-0.84753 1.79821,-2.1589 3.8506,-4.09984 5.5888,-6.30735 3.89484,-4.94645 6.09432,-11.19054 6.22752,-17.48493 0.10138,-4.79076 -0.96646,-9.57631 -2.87425,-13.97199 -0.9543,-2.19877 -2.11732,-4.30689 -3.46834,-6.28679 -0.24627,-0.46335 -0.59598,-0.87134 -1.01621,-1.18557 -0.27378,-0.20472 -0.58055,-0.37122 -0.9126,-0.4525 -0.33205,-0.0813 -0.69102,-0.0734 -1.00688,0.0573 -0.26086,0.10797 -0.4823,0.29391 -0.67787,0.49752 -0.19557,0.2036 -0.36946,0.42714 -0.56416,0.63158 -0.35807,0.37598 -0.76051,0.70695 -1.12908,1.07265 l -21.73531,21.56594 c -1.17183,1.27903 -2.7982,2.13287 -4.51644,2.37112 -1.39565,0.19352 -2.84855,-0.0164 -4.12123,-0.621 -1.85282,-0.88025 -3.27557,-2.60048 -3.83897,-4.57289 -0.54482,-1.90736 -0.29053,-4.02702 0.67747,-5.75844 0.28352,-0.50711 0.6252,-0.98167 1.01621,-1.41138 l 24.78389,-24.84035 c 0.47025,-0.43279 0.76072,-1.05525 0.79036,-1.69366 0.0222,-0.47852 -0.097,-0.95671 -0.29577,-1.39255 -0.19879,-0.43583 -0.47533,-0.83218 -0.77688,-1.20439 -0.51228,-0.63232 -1.10134,-1.20238 -1.75011,-1.69366 l -10.10552,-9.71032 c -0.13424,-0.0985 -0.21635,-0.26428 -0.2133,-0.43075 0.003,-0.16646 0.0911,-0.32915 0.2289,-0.42266 0.0824,-0.056 0.17933,-0.0872 0.27696,-0.10722 0.0976,-0.02 0.1971,-0.0293 0.29544,-0.0454 0.56277,-0.0923 1.06929,-0.40514 1.49206,-0.78789 0.42276,-0.38275 0.77373,-0.83647 1.14099,-1.27276 1.19934,-1.42475 2.59992,-2.69474 3.58707,-4.27394 1.73823,-2.78074 2.01427,-6.30186 1.29743,-9.50188 -0.50488,-2.25379 -1.48144,-4.4098 -2.90843,-6.22589 -1.42698,-1.81609 -3.30855,-3.28507 -5.44864,-4.15368 -3.04649,-1.2365 -6.5415,-1.2105 -9.65454,-0.15264 -2.74427,0.93254 -5.21487,2.64898 -7.05962,4.8845 -2.30852,2.79753 -3.62135,6.45681 -3.35811,10.07429 0.22172,3.04688 1.55759,5.99124 3.66339,8.20443 1.53284,1.61101 3.46342,2.84076 5.57138,3.5489 -1.49279,1.23697 -2.95615,2.50946 -4.38843,3.81602 -3.95014,3.60342 -7.66257,7.46525 -11.14277,11.52437 -2.69036,3.13789 -5.243,6.39475 -7.6233,9.77389 -4.024426,5.71319 -7.626208,11.97316 -8.634676,18.88833 -1.086186,7.44809 0.994202,15.17222 5.01891,21.53269 1.841966,2.91096 4.081886,5.56973 6.637886,7.87913 0.15468,0.071 0.30018,0.16189 0.43175,0.26983 0.25703,0.21087 0.46027,0.48833 0.57638,0.79986 0.1161,0.31153 0.14382,0.6566 0.0712,0.98104 -0.0815,0.36433 -0.2904,0.69885 -0.58193,0.93208 -0.29152,0.23322 -0.66374,0.36355 -1.03708,0.36312 -4.22729,-0.035 -8.454728,-0.053 -12.682166,-0.054 -0.251837,-6e-5 -0.503673,-6e-5 -0.75551,0 -1.477135,0.58946 -2.852489,1.43301 -4.04749,2.48247 -1.225259,1.07603 -2.284796,2.41617 -2.69836,3.99353 -0.292201,1.11448 -0.246653,2.30529 0.05749,3.41656 0.304148,1.11128 0.860743,2.14492 1.561516,3.05944 1.228189,1.60281 2.912646,2.85196 4.80304,3.56179 l 0.63735,0.0336 z"
       id="path838"
       inkscape:connector-curvature="0"
       inkscape:path-effect="#path-effect840"
       inkscape:original-d="m 91.625114,-184.3489 c 0,0 77.604346,-0.0798 77.604346,-0.0798 0,0 1.96967,-0.69221 2.9541,-1.03791 0.98441,-0.34571 3.0874,-3.77936 4.63071,-5.66864 1.54329,-1.88928 -0.95781,-3.6729 -1.43713,-5.50895 -0.4793,-1.83605 -2.87396,-2.50191 -4.31134,-3.75247 -1.4374,-1.25056 -1.35728,-0.15969 -1.35728,-0.15969 0,0 -13.0139,-0.23951 -13.0139,-0.23951 0,0 -0.95782,-1.27771 -1.43711,-1.91616 -0.47932,-0.63845 0.63896,-1.22448 0.95805,-1.83632 0.31912,-0.61184 3.72613,-4.20516 5.5888,-6.30735 1.86266,-2.10219 4.15194,-11.65689 6.22752,-17.48493 2.07558,-5.82805 -1.9159,-9.31493 -2.87425,-13.97199 -0.95834,-4.65706 -3.46834,-6.28679 -3.46834,-6.28679 0,0 -0.6772,-0.79064 -1.01621,-1.18557 -0.33899,-0.39492 -1.2794,-0.26372 -1.91948,-0.39518 -0.6401,-0.13147 -0.82774,0.75247 -1.24203,1.1291 -0.41426,0.37664 -1.12908,1.07265 -1.12908,1.07265 0,0 -21.73531,21.56594 -21.73531,21.56594 0,0 -3.01069,1.58048 -4.51644,2.37112 -1.50574,0.79064 -2.74722,-0.41427 -4.12123,-0.621 -1.37401,-0.20674 -2.55905,-3.04886 -3.83897,-4.57289 -1.27992,-1.52403 0.45191,-3.83922 0.67747,-5.75844 0.22555,-1.91922 1.01621,-1.41138 1.01621,-1.41138 0,0 24.78389,-24.84035 24.78389,-24.84035 0,0 0.52715,-1.12937 0.79036,-1.69366 0.26318,-0.56429 -0.71482,-1.73156 -1.07265,-2.59694 -0.35782,-0.86539 -1.75011,-1.69366 -1.75011,-1.69366 0,0 -10.10552,-9.71032 -10.10552,-9.71032 0,0 0.0109,-0.5692 0.0156,-0.85341 0.005,-0.28421 0.38185,-0.10203 0.5724,-0.15264 0.19053,-0.0506 1.75562,-1.37403 2.63305,-2.06065 0.87741,-0.68662 2.39163,-2.84956 3.58707,-4.27394 1.19541,-1.42438 0.86521,-6.33485 1.29743,-9.50188 0.43223,-3.16703 -5.57112,-6.91998 -8.35707,-10.37957 -2.78596,-3.45959 -6.4361,-0.10203 -9.65454,-0.15264 -3.21842,-0.0506 -4.70615,3.25607 -7.05962,4.8845 -2.35349,1.62843 -2.23848,6.71593 -3.35811,10.07429 -1.11961,3.35836 2.44252,5.46936 3.66339,8.20443 1.22087,2.73508 5.57138,3.5489 5.57138,3.5489 0,0 -2.92536,2.54375 -4.38843,3.81602 -1.46306,1.27227 -7.42823,7.68265 -11.14277,11.52437 -3.71451,3.84173 -5.08193,6.51567 -7.6233,9.77389 -2.541376,3.25823 -5.756196,12.59196 -8.634676,18.88833 -2.87848,6.29637 3.34621,14.35486 5.01891,21.53269 1.672686,7.17783 6.637886,7.87913 6.637886,7.87913 0,0 0.28808,0.17962 0.43175,0.26983 0.14364,0.0902 0.43198,1.187 0.64759,1.7809 0.21558,0.5939 -1.61901,1.2952 -1.61901,1.2952 0,0 -8.454496,-0.0362 -12.682166,-0.054 -4.22764,-0.0177 -0.75551,0 -0.75551,0 0,0 -2.69807,1.65471 -4.04749,2.48247 -1.34946,0.82775 -1.79864,2.66209 -2.69836,3.99353 -0.89969,1.33144 1.07961,4.31707 1.61901,6.476 0.53941,2.15893 4.80304,3.56179 4.80304,3.56179 0,0 0.63735,0.0336 0.63735,0.0336 z" />
    <path
       style="fill:#000000;fill-opacity:1;fill-rule:evenodd;stroke:#000000;stroke-width:0.26458332px;stroke-linecap:butt;stroke-linejoin:miter;stroke-opacity:1"
       d="m 212.094,-183.16812 c 25.88621,0 51.77242,0.0899 77.65801,0.26984 1.30838,-0.3377 2.55668,-0.90678 3.66972,-1.67297 1.03289,-0.71101 1.95345,-1.59666 2.64357,-2.64362 0.69013,-1.04695 1.14487,-2.2584 1.24202,-3.50858 0.11572,-1.48913 -0.28251,-3.00116 -1.04594,-4.28493 -0.76343,-1.28377 -1.88146,-2.34209 -3.16345,-3.1085 -0.9823,-0.58725 -2.06344,-1.00871 -3.18402,-1.24123 l -11.38698,-0.1619 c -0.22988,0.0571 -0.47736,0.0411 -0.69795,-0.0452 -0.22058,-0.0863 -0.41322,-0.24252 -0.54326,-0.4405 -0.11175,-0.17013 -0.17704,-0.3691 -0.19761,-0.57161 -0.0206,-0.20251 0.003,-0.40842 0.0588,-0.60412 0.11199,-0.3914 0.35041,-0.73589 0.62449,-1.0369 0.82975,-0.91127 1.97434,-1.4558 3.02212,-2.1047 2.32918,-1.44249 4.25532,-3.46837 5.85319,-5.69382 1.59787,-2.22546 2.88476,-4.65628 4.13066,-7.09627 1.60347,-3.14027 3.15971,-6.34201 3.99351,-9.76797 0.86028,-3.53474 0.92759,-7.20939 0.91744,-10.84729 -0.0223,-8.01012 -0.39781,-16.04264 0.37777,-24.01516 0.46107,-4.73958 1.32875,-9.43954 2.59038,-14.03133 0.89158,0.14521 1.79503,0.21749 2.69835,0.21587 2.13168,-0.004 4.33388,-0.45465 6.04425,-1.72693 1.37726,-1.02449 2.36052,-2.54338 2.81917,-4.19749 0.45864,-1.65411 0.40415,-3.43414 -0.0669,-5.08477 -0.63242,-2.21623 -2.05458,-4.23911 -4.04749,-5.39667 -1.18872,-0.69046 -2.55594,-1.06364 -3.93013,-1.10096 -1.37419,-0.0373 -2.75313,0.25869 -4.00297,0.83113 -1.87553,0.85902 -3.46142,2.358 -4.37129,4.2094 -0.69538,1.41495 -0.99345,3.02256 -0.85157,4.59275 0.14188,1.57019 0.72331,3.09833 1.66106,4.36571 -1.92909,1.51559 -3.81877,3.08132 -5.6665,4.6951 -4.09756,3.57875 -8.08544,7.53065 -10.25366,12.52026 -0.18149,0.41766 -0.35012,0.84242 -0.57454,1.23868 -0.22441,0.39625 -0.50939,0.7669 -0.88255,1.02792 -0.41088,0.2874 -0.92789,0.4299 -1.42441,0.36001 -0.49652,-0.0699 -0.96449,-0.3603 -1.21997,-0.79175 -0.23774,-0.4015 -0.28222,-0.88441 -0.32379,-1.34916 -0.73539,-8.22233 -2.29268,-16.37093 -4.64114,-24.28499 1.31753,-0.26211 2.56161,-0.88414 3.56182,-1.7809 1.45709,-1.30639 2.36081,-3.15545 2.75228,-5.07287 0.54844,-2.68626 0.0874,-5.63739 -1.56501,-7.82516 -1.08701,-1.4392 -2.65477,-2.50262 -4.38529,-3.01075 -1.73052,-0.50813 -3.61424,-0.46328 -5.32873,0.0965 -2.63828,0.86147 -4.83708,2.96628 -5.82838,5.55857 -0.62313,1.62952 -0.78113,3.43965 -0.41136,5.14461 0.36978,1.70496 1.2714,3.29646 2.57002,4.46145 0.83992,0.75349 1.83998,1.3276 2.9142,1.67296 -1.12643,2.18023 -2.25973,4.3569 -3.3999,6.52997 -3.06048,5.83305 -6.20693,11.73907 -7.55533,18.18676 -0.0767,0.36672 -0.14804,0.73681 -0.28257,1.08648 -0.13453,0.34966 -0.3378,0.682 -0.63487,0.91028 -0.24231,0.1862 -0.54167,0.29645 -0.84673,0.3146 -0.30505,0.0181 -0.6146,-0.0555 -0.88018,-0.20666 -0.30291,-0.17244 -0.5433,-0.43973 -0.72991,-0.73412 -0.18662,-0.29439 -0.32334,-0.6171 -0.45738,-0.93885 -2.10577,-5.05491 -3.76452,-10.29368 -6.04425,-15.27256 -1.50373,-3.28412 -3.27438,-6.44599 -5.28873,-9.44416 2.05305,-0.67095 3.81885,-2.17882 4.80303,-4.10147 0.64578,-1.26157 0.96002,-2.68651 0.93915,-4.10361 -0.0209,-1.4171 -0.37383,-2.82455 -0.99315,-4.09932 -0.58582,-1.20582 -1.41217,-2.29821 -2.43665,-3.16287 -1.02448,-0.86465 -2.24788,-1.49849 -3.55365,-1.80206 -1.64748,-0.38302 -3.41023,-0.23017 -4.97984,0.40009 -1.56961,0.63026 -2.94181,1.73119 -3.92466,3.10775 -0.86869,1.21667 -1.43669,2.64888 -1.62089,4.13245 -0.1842,1.48358 0.0176,3.01555 0.59552,4.39428 0.97884,2.33508 3.06582,4.17652 5.50461,4.85699 -0.66816,3.8954 -1.47838,7.76644 -2.42851,11.60283 -1.10738,4.47136 -2.41611,9.00765 -2.05073,13.59959 0.0261,0.32789 0.0607,0.65752 0.0293,0.98494 -0.0314,0.32741 -0.13489,0.65777 -0.35308,0.9039 -0.15611,0.1761 -0.3657,0.30181 -0.59127,0.36891 -0.22556,0.0671 -0.46649,0.0768 -0.69903,0.0407 -0.4651,-0.0722 -0.8863,-0.32206 -1.24613,-0.62544 -0.68777,-0.57988 -1.17976,-1.35234 -1.67296,-2.1047 -2.16329,-3.30005 -4.55452,-6.44918 -7.12361,-9.44416 -1.50904,-1.7592 -3.08507,-3.47084 -4.85698,-4.96493 -1.16519,-0.9825 -2.41213,-1.86801 -3.7237,-2.64437 0.82994,-1.26712 1.38593,-2.71271 1.61899,-4.2094 0.35026,-2.24936 -0.0617,-4.6525 -1.34916,-6.52996 -1.47562,-2.15192 -4.0329,-3.46678 -6.6379,-3.61576 -2.0986,-0.12002 -4.23899,0.48693 -5.93632,1.72693 -2.33429,1.70534 -3.74161,4.61324 -3.61577,7.50136 0.0677,1.55366 0.55836,3.08714 1.40719,4.39018 0.84884,1.30304 2.05378,2.37196 3.44979,3.05722 2.0255,0.99425 4.44596,1.15297 6.58395,0.43173 0.38604,1.35558 0.72807,2.72369 1.02536,4.10146 0.90019,4.17181 1.38845,8.42384 1.67296,12.68217 0.35999,5.38811 0.39559,10.79179 0.53967,16.18999 0.19266,7.21811 0.59404,14.51749 2.69833,21.42475 2.12538,6.97648 6.19248,13.62307 12.41232,17.43123 1.08419,0.6638 2.24125,1.24977 3.13007,2.15867 0.14667,0.14998 0.28592,0.30905 0.39429,0.48867 0.10837,0.17962 0.18525,0.38136 0.19936,0.59066 0.0209,0.30994 -0.10006,0.62112 -0.30227,0.85694 -0.20221,0.23583 -0.48065,0.3993 -0.77707,0.49223 -0.40094,0.1257 -0.8403,0.1257 -1.24124,0 l -10.19969,-0.1619 c -1.75375,0.43806 -3.38931,1.34043 -4.69511,2.5904 -0.97211,0.93054 -1.76597,2.05855 -2.24121,3.31753 -0.47524,1.25899 -0.62382,2.65059 -0.34917,3.96796 0.21955,1.05307 0.70369,2.04249 1.34802,2.90387 0.64433,0.86139 1.44634,1.59775 2.3217,2.22296 0.74213,0.53005 1.5393,0.98298 2.37453,1.34917 l 0.86347,0.10793 z"
       id="path842"
       inkscape:connector-curvature="0"
       inkscape:path-effect="#path-effect844"
       inkscape:original-d="m 212.094,-183.16812 c 0,0 77.65801,0.26984 77.65801,0.26984 0,0 2.44673,-1.11558 3.66972,-1.67297 1.22298,-0.55739 2.59066,-4.10173 3.88559,-6.1522 1.29495,-2.05047 -2.80599,-4.92921 -4.20939,-7.39343 -1.4034,-2.46421 -3.18402,-1.24123 -3.18402,-1.24123 0,0 -11.38698,-0.1619 -11.38698,-0.1619 0,0 -0.82722,-0.32406 -1.24121,-0.4857 -0.41402,-0.16164 0.32406,-1.47535 0.48569,-2.21263 0.16164,-0.73728 2.01501,-1.4034 3.02212,-2.1047 1.00711,-0.7013 6.65615,-8.527 9.98385,-12.79009 3.32766,-4.26311 2.6626,-6.51224 3.99351,-9.76797 1.33091,-3.25572 0.6119,-7.23179 0.91744,-10.84729 0.30554,-3.6155 0.2521,-16.01037 0.37777,-24.01516 0.12566,-8.00479 2.59038,-14.03133 2.59038,-14.03133 0,0 1.79917,0.14365 2.69835,0.21587 0.89916,0.0722 4.02977,-1.15155 6.04425,-1.72693 2.01451,-0.57538 1.83515,-6.18844 2.7523,-9.28226 0.91718,-3.09383 -2.69806,-3.59805 -4.04749,-5.39667 -1.34942,-1.79862 -5.28846,-0.18015 -7.9331,-0.26983 -2.64462,-0.0897 -2.91394,2.806 -4.37129,4.2094 -1.45738,1.40339 0.80949,8.95846 0.80949,8.95846 0,0 -3.7774,3.1298 -5.6665,4.6951 -1.8891,1.56529 -6.83551,8.34657 -10.25366,12.52026 -3.41815,4.17368 -0.97113,1.5108 -1.45709,2.2666 -0.48596,0.75579 -1.76265,-0.28809 -2.64438,-0.43174 -0.88169,-0.14364 -0.21558,-0.89971 -0.32379,-1.34916 -0.10819,-0.44946 -4.64114,-24.28499 -4.64114,-24.28499 0,0 2.37482,-1.18753 3.56182,-1.7809 1.187,-0.59337 1.83512,-3.38218 2.75228,-5.07287 0.91717,-1.69069 -1.04307,-5.21703 -1.56501,-7.82516 -0.52195,-2.60812 -6.47573,-1.94306 -9.71402,-2.9142 -3.23826,-0.97113 -3.88533,3.70545 -5.82838,5.55857 -1.94307,1.85312 1.43936,6.40378 2.15866,9.60606 0.7193,3.20229 2.9142,1.67296 2.9142,1.67296 0,0 -2.26634,4.35305 -3.3999,6.52997 -1.13358,2.17692 -5.03663,12.12424 -7.55533,18.18676 -2.5187,6.06252 -0.61135,1.33091 -0.91744,1.99676 -0.30607,0.66586 -1.15102,0.0717 -1.72691,0.10794 -0.57592,0.0362 -0.79127,-1.11558 -1.18729,-1.67297 -0.39601,-0.55739 -4.02924,-10.18197 -6.04425,-15.27256 -2.01502,-5.09059 -5.28873,-9.44416 -5.28873,-9.44416 0,0 3.20228,-2.73458 4.80303,-4.10147 1.60073,-1.36689 -0.0357,-5.46888 -0.054,-8.20293 -0.0183,-2.73404 -3.99328,-3.31021 -5.9903,-4.96493 -1.99702,-1.65471 -5.93606,2.33829 -8.9045,3.50784 -2.96841,1.16954 -0.68331,5.68422 -1.02537,8.52673 -0.34205,2.8425 5.50461,4.85699 5.50461,4.85699 0,0 -1.61875,7.73496 -2.42851,11.60283 -0.80976,3.86788 -1.36689,9.06613 -2.05073,13.59959 -0.68384,4.53347 -0.21561,1.25896 -0.3238,1.88884 -0.10819,0.62987 -1.69069,-0.14418 -2.53643,-0.21587 -0.84574,-0.0717 -1.11506,-1.4034 -1.67296,-2.1047 -0.55792,-0.7013 -4.74879,-6.29637 -7.12361,-9.44416 -2.3748,-3.14779 -3.23773,-3.31022 -4.85698,-4.96493 -1.61928,-1.65471 -3.7237,-2.64437 -3.7237,-2.64437 0,0 1.07958,-2.80653 1.61899,-4.2094 0.5394,-1.40286 -0.89919,-4.35357 -1.34916,-6.52996 -0.44998,-2.17639 -4.425,-2.41077 -6.6379,-3.61576 -2.21289,-1.205 -3.95729,1.15102 -5.93632,1.72693 -1.97906,0.57591 -2.41025,5.00064 -3.61577,7.50136 -1.20552,2.50072 3.23826,4.96467 4.85698,7.4474 1.61875,2.48273 6.58395,0.43173 6.58395,0.43173 0,0 0.68384,2.73405 1.02536,4.10146 0.34153,1.36742 1.11556,8.45452 1.67296,12.68217 0.5574,4.22765 0.36005,10.79306 0.53967,16.18999 0.17963,5.39693 1.79914,14.2829 2.69833,21.42475 0.89919,7.14186 8.27516,11.62056 12.41232,17.43123 4.13718,5.81067 2.08698,1.43885 3.13007,2.15867 1.0431,0.71982 0.39603,0.71929 0.59365,1.07933 0.19761,0.36004 -0.7193,0.89918 -1.07934,1.34917 -0.36005,0.44998 -1.24124,0 -1.24124,0 0,0 -10.19969,-0.1619 -10.19969,-0.1619 0,0 -3.12981,1.72666 -4.69511,2.5904 -1.56528,0.86373 -1.72665,4.85673 -2.59038,7.28549 -0.86373,2.42877 2.44674,3.41762 3.66972,5.12683 1.22298,1.70921 2.37453,1.34917 2.37453,1.34917 0,0 0.86347,0.10793 0.86347,0.10793 z" />
    <path
       style="fill:#000000;fill-opacity:1;fill-rule:evenodd;stroke:#000000;stroke-width:0.26458332px;stroke-linecap:butt;stroke-linejoin:miter;stroke-opacity:1"
       d="m 356.57714,-183.66649 79.22058,0.22896 c 1.912,-0.51624 3.65002,-1.65681 4.8845,-3.20546 0.74426,-0.93366 1.3091,-2.01492 1.61163,-3.16996 0.30253,-1.15505 0.33927,-2.3836 0.0674,-3.54623 -0.48833,-2.08811 -1.96709,-3.87445 -3.816,-4.96082 -1.09654,-0.64429 -2.32521,-1.06256 -3.5871,-1.22113 l -7.7846,-0.30528 c 2.30391,-1.20815 4.54645,-2.53331 6.7161,-3.96866 5.53916,-3.66448 10.63476,-8.08748 14.5772,-13.43238 4.947,-6.70683 7.98831,-14.87134 8.2426,-23.20139 0.21142,-6.9257 -1.57849,-14.0438 -5.8003,-19.53801 -4.24069,-5.51878 -10.72742,-9.09855 -17.5537,-10.45589 -5.01098,-0.99638 -10.25027,-0.85491 -15.1878,0.45792 -3.11683,0.82872 -6.11049,2.11911 -8.8531,3.81602 -0.44604,-0.84382 -0.98452,-1.63873 -1.6027,-2.36593 -1.40893,-1.6574 -3.23701,-2.9556 -5.2661,-3.7397 l -0.229,-7.78467 h 7.861 c 1.38929,-0.40766 2.61316,-1.35338 3.3581,-2.5949 0.51991,-0.86648 0.80894,-1.86947 0.8341,-2.87965 0.0252,-1.01018 -0.21317,-2.02528 -0.6815,-2.92069 -0.70195,-1.34208 -1.92813,-2.40106 -3.3581,-2.90018 l -8.0136,-0.0763 0.1526,-7.70835 c -0.55943,-1.71953 -1.95568,-3.1449 -3.6633,-3.7397 -1.5205,-0.52962 -3.22304,-0.40928 -4.7319,0.15264 -0.83011,0.30914 -1.61923,0.75344 -2.25357,1.37173 -0.63433,0.61829 -1.10758,1.41855 -1.25713,2.29165 -0.0691,0.40313 -0.0691,0.81799 0,1.22112 v 6.71619 h -8.1663 c -1.5373,0.3961 -2.86846,1.5247 -3.5107,2.9765 -0.43948,0.99344 -0.56223,2.1195 -0.3777,3.19003 0.18453,1.07052 0.67194,2.08309 1.3698,2.9156 0.71049,0.84757 1.63902,1.51081 2.6712,1.908 l 8.2426,0.0763 -0.3053,7.40307 c -1.09406,0.36768 -2.12889,0.91097 -3.0528,1.60273 -1.65135,1.23642 -2.93875,2.95299 -3.6633,4.8845 -1.5127,-0.93186 -3.09602,-1.74905 -4.7319,-2.44225 -6.40938,-2.71594 -13.67022,-3.46963 -20.45386,-1.90801 -4.23374,0.97462 -8.27121,2.84079 -11.69399,5.51642 -3.42278,2.67563 -6.22097,6.16424 -7.99667,10.12925 -2.0222,4.51544 -2.69206,9.5596 -2.44227,14.50087 0.46498,9.19815 4.09592,18.14347 9.84533,25.33836 5.17779,6.47955 12.06205,11.58294 19.76696,14.65351 l -9.0821,0.53424 c -2.37565,0.47798 -4.50509,2.06067 -5.64772,4.19762 -1.06938,1.99995 -1.26244,4.44927 -0.5196,6.59206 0.74283,2.14279 2.41048,3.94706 4.48827,4.85599 l 1.37377,0.53425 z"
       id="path846"
       inkscape:connector-curvature="0"
       inkscape:path-effect="#path-effect848"
       inkscape:original-d="m 356.57714,-183.66649 c 0,0 79.22058,0.22896 79.22058,0.22896 0,0 3.2566,-2.13724 4.8845,-3.20546 1.6279,-1.06822 1.1196,-4.47772 1.679,-6.71619 0.5594,-2.23846 -2.5438,-3.30748 -3.816,-4.96082 -1.2723,-1.65334 -3.5871,-1.22113 -3.5871,-1.22113 0,0 -7.7846,-0.30528 -7.7846,-0.30528 0,0 4.4777,-2.64604 6.7161,-3.96866 2.2385,-1.32262 9.7184,-8.95519 14.5772,-13.43238 4.8588,-4.4772 5.4953,-15.46786 8.2426,-23.20139 2.7473,-7.73353 -3.8666,-13.02561 -5.8003,-19.53801 -1.9337,-6.51241 -11.7022,-6.97086 -17.5537,-10.45589 -5.8515,-3.48503 -10.1249,0.30502 -15.1878,0.45792 -5.0628,0.15291 -8.8531,3.81602 -8.8531,3.81602 0,0 -1.0682,-1.57755 -1.6027,-2.36593 -0.5345,-0.78838 -5.2661,-3.7397 -5.2661,-3.7397 0,0 -0.229,-7.78467 -0.229,-7.78467 0,0 7.861,0 7.861,0 0,0 2.239,-1.7302 3.3581,-2.5949 1.1191,-0.86469 0.102,-3.86716 0.1526,-5.80034 0.051,-1.93319 -3.3581,-2.90018 -3.3581,-2.90018 0,0 -8.0136,-0.0763 -8.0136,-0.0763 0,0 0.1526,-7.70835 0.1526,-7.70835 0,0 -2.4419,-2.4934 -3.6633,-3.7397 -1.2214,-1.2463 -3.1544,0.10149 -4.7319,0.15264 -1.5776,0.0511 -2.3402,2.44199 -3.5107,3.66338 -1.1705,1.22139 0,1.22112 0,1.22112 0,0 0,6.71619 0,6.71619 0,0 -8.1663,0 -8.1663,0 0,0 -2.3403,1.98407 -3.5107,2.9765 -1.1706,0.99243 0.6616,4.07015 0.9921,6.10563 0.3305,2.03547 2.6712,1.908 2.6712,1.908 0,0 8.2426,0.0763 8.2426,0.0763 0,0 -0.3053,7.40307 -0.3053,7.40307 0,0 -2.0349,1.06822 -3.0528,1.60273 -1.0179,0.5345 -3.6633,4.8845 -3.6633,4.8845 0,0 -3.1544,-1.62843 -4.7319,-2.44225 -1.5776,-0.81382 -13.6357,-1.27227 -20.45386,-1.90801 -6.81824,-0.63574 -13.12685,10.43018 -19.69066,15.64567 -6.56381,5.21549 -1.62791,9.66698 -2.44227,14.50087 -0.81433,4.83389 6.56384,16.89198 9.84533,25.33836 3.28153,8.44638 19.76696,14.65351 19.76696,14.65351 0,0 -9.0821,0.53424 -9.0821,0.53424 0,0 -3.76486,2.79815 -5.64772,4.19762 -1.88283,1.39947 3.96867,11.44805 3.96867,11.44805 0,0 1.37377,0.53425 1.37377,0.53425 z" />
  </g>
</svg>
