<?xml version="1.0" encoding="UTF-8" standalone="no"?>
<!-- Created with Inkscape (http://www.inkscape.org/) -->

<svg
   xmlns:dc="http://purl.org/dc/elements/1.1/"
   xmlns:cc="http://creativecommons.org/ns#"
   xmlns:rdf="http://www.w3.org/1999/02/22-rdf-syntax-ns#"
   xmlns:svg="http://www.w3.org/2000/svg"
   xmlns="http://www.w3.org/2000/svg"
   xmlns:sodipodi="http://sodipodi.sourceforge.net/DTD/sodipodi-0.dtd"
   xmlns:inkscape="http://www.inkscape.org/namespaces/inkscape"
   width="250mm"
   height="250mm"
   viewBox="0 0 250 250"
   version="1.1"
   id="svg8"
   inkscape:version="0.92.3 (2405546, 2018-03-11)">
  <defs
     id="defs2">
    <inkscape:perspective
       sodipodi:type="inkscape:persp3d"
       inkscape:vp_x="0 : 125 : 1"
       inkscape:vp_y="0 : 1000 : 0"
       inkscape:vp_z="250 : 125 : 1"
       inkscape:persp3d-origin="125 : 83.333333 : 1"
       id="perspective859" />
    <inkscape:path-effect
       effect="spiro"
       id="path-effect840"
       is_visible="true" />
    <inkscape:path-effect
       effect="spiro"
       id="path-effect836"
       is_visible="true" />
    <inkscape:path-effect
       effect="spiro"
       id="path-effect832"
       is_visible="true" />
    <inkscape:path-effect
       effect="spiro"
       id="path-effect828"
       is_visible="true" />
    <inkscape:perspective
       sodipodi:type="inkscape:persp3d"
       inkscape:vp_x="-93.211745 : 137.63442 : 1"
       inkscape:vp_y="0 : 1187.1313 : 0"
       inkscape:vp_z="306.95232 : 137.63442 : 1"
       inkscape:persp3d-origin="106.87028 : 88.170631 : 1"
       id="perspective859-4" />
  </defs>
  <sodipodi:namedview
     id="base"
     pagecolor="#ffffff"
     bordercolor="#666666"
     borderopacity="1.0"
     inkscape:pageopacity="0.0"
     inkscape:pageshadow="2"
     inkscape:zoom="0.39505748"
     inkscape:cx="87.629857"
     inkscape:cy="278.74702"
     inkscape:document-units="mm"
     inkscape:current-layer="layer1"
     showgrid="false"
     inkscape:window-width="1680"
     inkscape:window-height="997"
     inkscape:window-x="-8"
     inkscape:window-y="-8"
     inkscape:window-maximized="1" />
  <metadata
     id="metadata5">
    <rdf:RDF>
      <cc:Work
         rdf:about="">
        <dc:format>image/svg+xml</dc:format>
        <dc:type
           rdf:resource="http://purl.org/dc/dcmitype/StillImage" />
        <dc:title></dc:title>
      </cc:Work>
    </rdf:RDF>
  </metadata>
  <g
     inkscape:groupmode="layer"
     id="layer2"
     inkscape:label="bg">
    <g
       id="g945"
       transform="translate(0,66.973376)">
      <rect
         y="97.635567"
         x="84.721321"
         height="79.363449"
         width="79.363449"
         id="rect912"
         style="fill:#000000;fill-opacity:1;stroke:#000000;stroke-width:2.04999995;stroke-linecap:round;stroke-linejoin:round;stroke-miterlimit:4;stroke-dasharray:none;stroke-opacity:1;paint-order:stroke markers fill" />
      <rect
         y="97.635567"
         x="164.08478"
         height="79.363457"
         width="79.363457"
         id="rect912-8"
         style="fill:#ffffff;fill-opacity:1;stroke:#000000;stroke-width:2.04999995;stroke-linecap:round;stroke-linejoin:round;stroke-miterlimit:4;stroke-dasharray:none;stroke-opacity:1;paint-order:stroke markers fill" />
      <rect
         y="18.272118"
         x="84.721329"
         height="79.363457"
         width="79.363457"
         id="rect912-9"
         style="fill:#ffffff;fill-opacity:1;stroke:#000000;stroke-width:2.04999995;stroke-linecap:round;stroke-linejoin:round;stroke-miterlimit:4;stroke-dasharray:none;stroke-opacity:1;paint-order:stroke markers fill" />
      <rect
         y="18.272116"
         x="164.08478"
         height="79.363457"
         width="79.363457"
         id="rect912-4"
         style="fill:#000000;fill-opacity:1;stroke:#000000;stroke-width:2.04999995;stroke-linecap:round;stroke-linejoin:round;stroke-miterlimit:4;stroke-dasharray:none;stroke-opacity:1;paint-order:stroke markers fill" />
    </g>
  </g>
  <g
     inkscape:label="horse"
     inkscape:groupmode="layer"
     id="layer1"
     transform="translate(0,-47)"
     style="display:inline">
    <g
       id="g857"
       transform="matrix(3.7210742,0,0,3.7210742,-361.43017,-342.68837)">
      <path
         sodipodi:nodetypes="ccccccsccc"
         inkscape:original-d="m 129.62572,147.12861 c 0.46746,1.24752 -26.66014,0.0668 -26.66014,0.0668 l 1.33635,-3.0736 c 0,0 1.38116,-1.24752 2.07134,-1.87089 0.69018,-0.62336 1.23612,-0.20045 1.23612,-0.20045 h 18.34138 c 0,0 1.49251,0.71246 2.13815,1.1359 0.64564,0.42344 0.13363,0.20045 0.13363,0.20045 0,0 0.93571,2.49425 1.40317,3.74177 z"
         inkscape:path-effect="#path-effect828"
         inkscape:connector-curvature="0"
         id="path826"
         d="m 129.62572,147.12861 -26.66014,0.0668 1.33635,-3.0736 c 0.40479,-0.86553 1.16921,-1.55598 2.07134,-1.87089 0.39612,-0.13828 0.8166,-0.20646 1.23612,-0.20045 h 18.34138 c 0.8345,0.0311 1.64523,0.46181 2.13815,1.1359 0.0474,0.0648 0.092,0.13174 0.13363,0.20045 l 1.40317,3.74177 z"
         style="fill:#000000;fill-opacity:1;stroke:#000000;stroke-width:0.26458332px;stroke-linecap:butt;stroke-linejoin:miter;stroke-opacity:1" />
      <path
         sodipodi:nodetypes="ccsccccc"
         inkscape:original-d="m 108.0103,138.10827 c 0.0888,-0.0109 16.57071,0 16.57071,0 0,0 0.0448,1.73698 0.0668,2.60588 0.022,0.86888 -0.33409,0.0167 -0.33409,0.0167 l -16.30343,0.0167 c 0,0 -0.17792,-1.73751 -0.26727,-2.60587 -0.0894,-0.86837 0.17844,-0.0225 0.26727,-0.0334 z"
         inkscape:path-effect="#path-effect832"
         inkscape:connector-curvature="0"
         id="path830"
         d="m 108.0103,138.10827 h 16.57071 c 0.30941,0.0392 0.6031,0.19232 0.81231,0.42362 0.2092,0.23131 0.3322,0.53885 0.34019,0.85063 0.008,0.31178 -0.0991,0.62522 -0.29616,0.86694 -0.19708,0.24172 -0.48254,0.40973 -0.78954,0.46469 -0.11005,0.0197 -0.22262,0.0253 -0.33409,0.0167 l -16.30343,0.0167 c -0.31814,-0.007 -0.63221,-0.13384 -0.86605,-0.34967 -0.23384,-0.21582 -0.38536,-0.51874 -0.41783,-0.83529 -0.0325,-0.31655 0.0544,-0.64393 0.23957,-0.90272 0.18516,-0.2588 0.46696,-0.44672 0.77704,-0.51819 0.0876,-0.0202 0.17735,-0.0314 0.26727,-0.0334 z"
         style="fill:#000000;fill-opacity:1;stroke:#000000;stroke-width:0.26458332px;stroke-linecap:butt;stroke-linejoin:miter;stroke-opacity:1" />
      <path
         inkscape:original-d="m 126.66927,136.54911 c 0.16913,-0.0442 -0.86593,-1.55942 -1.29929,-2.33873 -0.43337,-0.77931 -1.55889,-1.8429 -2.33873,-2.76395 -0.77984,-0.92105 -0.40921,-2.14213 -0.61421,-3.2128 -0.20501,-1.07067 0.72472,-3.13432 1.08668,-4.70108 0.36196,-1.56676 -0.20447,-4.58322 -0.30711,-6.87444 -0.10263,-2.29121 -2.75581,-3.11857 -4.13411,-4.67745 -1.3783,-1.55889 -7.74851,-0.87407 -7.74851,-0.87407 0,0 -2.96055,-2.25238 -4.44122,-3.37817 -1.48068,-1.12579 -0.47247,-0.18898 -0.47247,-0.18898 0,0 0.37824,2.96054 0.56696,4.44122 0.18872,1.48067 0.25986,0.4016 0.25986,0.4016 0,0 -2.008,-1.39379 -2.008,-1.39379 0,0 -2.29909,3.33852 -3.44903,5.00818 -1.14994,1.66966 -0.0472,0.11812 -0.0472,0.11812 0,0 2.07913,-0.53573 3.1183,-0.8032 1.03917,-0.26747 0.16537,0 0.16537,0 0,0 -0.44071,0.58245 -0.66146,0.87407 -0.22075,0.29162 -0.0942,2.0786 -0.14174,3.1183 -0.0475,1.0397 -0.28348,1.93713 -0.28348,1.93713 0,0 -0.5352,2.85031 -0.8032,4.27586 -0.268,1.42555 -0.0785,0.58245 -0.11812,0.87407 -0.0396,0.29162 0.17351,0.78718 0.25986,1.18117 0.0863,0.39399 4.34673,0.56697 4.34673,0.56697 0,0 0.0709,-2.33873 0.0709,-2.33873 0,0 1.06305,-1.01581 1.06305,-1.01581 0,0 -1.08668,-1.08668 -1.08668,-1.08668 0,0 0.48849,0.25172 0.73233,0.37797 0.24385,0.12626 5.85863,-4.93731 5.85863,-4.93731 0,0 0.13269,0.003 0.19864,0.005 0.066,0.002 0.0496,0.14773 0.074,0.22199 0.0244,0.0743 -0.13786,2.31827 -0.20719,3.4778 -0.0693,1.15954 -0.86052,1.13316 -1.29118,1.70014 -0.43066,0.56697 -1.40897,1.06014 -2.11385,1.59061 -0.70488,0.53047 -3.55796,8.05774 -3.55796,8.05774 0,0 -0.16717,0.0974 -0.25115,0.1465 -0.084,0.0491 -0.69737,1.61826 -1.04646,2.42779 -0.34908,0.80952 0,0.16743 0,0.16743 0,0 20.11294,-0.25115 20.11294,-0.25115 0,0 0.33905,-0.0892 0.50818,-0.13338 z"
         inkscape:path-effect="#path-effect836"
         inkscape:connector-curvature="0"
         id="path834"
         d="m 126.66927,136.54911 c -0.29266,-0.84722 -0.73456,-1.64266 -1.29929,-2.33873 -0.76221,-0.93949 -1.75039,-1.70685 -2.33873,-2.76395 -0.53785,-0.96638 -0.69646,-2.10989 -0.61421,-3.2128 0.1198,-1.60641 0.72054,-3.13238 1.08668,-4.70108 0.52952,-2.26869 0.55383,-4.70969 -0.30711,-6.87444 -0.7839,-1.97105 -2.28767,-3.63334 -4.13411,-4.67745 -2.32474,-1.31458 -5.18933,-1.63772 -7.74851,-0.87407 -1.17143,-1.4693 -2.71251,-2.64151 -4.44122,-3.37817 -0.15606,-0.0665 -0.3136,-0.12952 -0.47247,-0.18898 -0.42134,1.47506 -0.21144,3.11932 0.56696,4.44122 0.0809,0.13744 0.16765,0.27146 0.25986,0.4016 l -2.008,-1.39379 c -1.49593,1.39168 -2.68229,3.11433 -3.44903,5.00818 -0.0159,0.0393 -0.0316,0.0787 -0.0472,0.11812 0.95519,-0.51193 2.03466,-0.78998 3.1183,-0.8032 0.0551,-6.7e-4 0.11025,-6.7e-4 0.16537,0 -0.28526,0.23377 -0.51399,0.53603 -0.66146,0.87407 -0.21008,0.48156 -0.25218,1.02008 -0.23582,1.54521 0.0164,0.52513 0.0882,1.04774 0.0941,1.57309 0.007,0.65522 -0.0887,1.3115 -0.28348,1.93713 -0.26012,1.4267 -0.52786,2.85202 -0.8032,4.27586 -0.0559,0.28903 -0.11229,0.57974 -0.11812,0.87407 -0.008,0.40681 0.0825,0.81499 0.25986,1.18117 0.37718,0.77859 1.16247,1.34478 2.02034,1.45668 0.85787,0.1119 1.76211,-0.23392 2.32639,-0.88971 l 0.0709,-2.33873 1.06305,-1.01581 -1.08668,-1.08668 c 0.23139,0.14882 0.47698,0.27557 0.73233,0.37797 0.72613,0.29118 1.53184,0.38095 2.30425,0.25673 0.77242,-0.12421 1.50936,-0.46206 2.10759,-0.96622 0.59823,-0.50415 1.05607,-1.17319 1.30937,-1.91338 0.2533,-0.7402 0.30135,-1.54947 0.13742,-2.31444 0.028,-0.0226 0.0642,-0.0348 0.10024,-0.0339 0.036,9.1e-4 0.0715,0.015 0.0984,0.0389 0.0299,0.0267 0.0484,0.0642 0.0586,0.10298 0.0102,0.0387 0.0128,0.079 0.0154,0.11901 0.0386,0.58495 0.0991,1.16946 0.0934,1.75565 -0.006,0.58619 -0.0798,1.17909 -0.30057,1.72215 -0.27046,0.66532 -0.75003,1.22795 -1.29118,1.70014 -0.66466,0.57996 -1.42677,1.0374 -2.11385,1.59061 -2.37606,1.91312 -3.74482,5.01295 -3.55796,8.05774 -0.0873,0.0423 -0.17133,0.0914 -0.25115,0.1465 -0.37685,0.26032 -0.65056,0.65319 -0.81503,1.08066 -0.16446,0.42747 -0.225,0.88916 -0.23143,1.34713 -7.8e-4,0.0558 -7.8e-4,0.11162 0,0.16743 l 20.11294,-0.25115 0.50818,-0.13338 z"
         style="fill:#000000;fill-opacity:1;stroke:#000000;stroke-width:0.26458332px;stroke-linecap:butt;stroke-linejoin:miter;stroke-opacity:1" />
      <path
         inkscape:original-d="m 125.31933,132.75887 c 0,0 0.47384,-3.45341 0.71036,-5.17971 0.23652,-1.72631 0.84875,-3.09822 1.27273,-4.64694 0.42397,-1.54871 -0.25626,-4.16376 -0.38478,-6.24525 -0.12853,-2.08148 -17.28543,-8.67231 -17.28543,-8.67231 0,0 1.95349,1.9239 1.95349,1.9239 0,0 1.1842,-0.17786 1.7759,-0.26639 0.5917,-0.0885 4.1835,0.96661 6.27485,1.45032 2.09135,0.4837 2.94036,3.39368 4.41015,5.09091 1.46979,1.69724 0.53304,3.78832 0.79916,5.68288 0.26612,1.89456 -0.39438,2.07162 -0.59197,3.10783 -0.19759,1.0362 -0.41411,1.59804 -0.62157,2.39746 -0.20745,0.79942 0.25679,2.4268 0.38478,3.64059 0.128,1.2138 0.97675,1.47992 0.97675,1.47992 0,0 0.32558,0.23679 0.32558,0.23679 z"
         inkscape:path-effect="#path-effect840"
         inkscape:connector-curvature="0"
         id="path838"
         d="m 125.31933,132.75887 c 0.0289,-1.74666 0.26799,-3.48975 0.71036,-5.17971 0.40689,-1.55444 0.98536,-3.06604 1.27273,-4.64694 0.37663,-2.07189 0.23759,-4.23348 -0.38478,-6.24525 -1.06404,-3.43946 -3.57671,-6.40509 -6.79469,-8.01959 -3.21798,-1.6145 -7.09745,-1.85588 -10.49074,-0.65272 l 1.95349,1.9239 c 0.58367,-0.13563 1.17813,-0.2248 1.7759,-0.26639 2.17416,-0.15128 4.39616,0.34561 6.27485,1.45032 1.96973,1.15824 3.54047,2.97785 4.41015,5.09091 0.73512,1.7861 0.97253,3.75921 0.79916,5.68288 -0.0948,1.05175 -0.30943,2.09031 -0.59197,3.10783 -0.22101,0.79593 -0.4843,1.5829 -0.62157,2.39746 -0.2057,1.22058 -0.11543,2.50838 0.38478,3.64059 0.23998,0.54318 0.57165,1.04572 0.97675,1.47992 z"
         style="fill:#000000;fill-opacity:1;stroke:#000000;stroke-width:0.26458332px;stroke-linecap:butt;stroke-linejoin:miter;stroke-opacity:1" />
      <path
         inkscape:connector-curvature="0"
         id="path842"
         d="m 106.2728,118.78846 0.94715,-2.39747 0.71036,1.39112 z"
         style="fill:#ffffff;fill-opacity:1;stroke:#000000;stroke-width:0.26458332px;stroke-linecap:butt;stroke-linejoin:miter;stroke-opacity:1" />
    </g>
  </g>
</svg>
